<svg width="1363" height="167" viewBox="0 0 1363 167" fill="none" xmlns="http://www.w3.org/2000/svg">
<rect width="1363" height="167" rx="15" fill="#F0F0F0"/>
<path d="M0 15C0 6.71573 6.71573 0 15 0H37V167H15C6.71573 167 0 160.284 0 152V15Z" fill="#424241"/>
<path d="M100.906 54.9219L93.3945 52.2383V49.0859L103.602 53.375V55.6367L100.906 54.9219ZM93.3945 57.1719L100.918 54.4297L103.602 53.7852V56.0352L93.3945 60.3242V57.1719ZM113.504 44.9375H116.48L120.863 57.4648L125.246 44.9375H128.223L122.059 62H119.668L113.504 44.9375ZM111.898 44.9375H114.863L115.402 57.1484V62H111.898V44.9375ZM126.863 44.9375H129.84V62H126.324V57.1484L126.863 44.9375ZM138.547 62.2344C137.562 62.2344 136.68 62.0781 135.898 61.7656C135.117 61.4453 134.453 61.0039 133.906 60.4414C133.367 59.8789 132.953 59.2266 132.664 58.4844C132.375 57.7344 132.23 56.9375 132.23 56.0938V55.625C132.23 54.6641 132.367 53.7852 132.641 52.9883C132.914 52.1914 133.305 51.5 133.812 50.9141C134.328 50.3281 134.953 49.8789 135.688 49.5664C136.422 49.2461 137.25 49.0859 138.172 49.0859C139.07 49.0859 139.867 49.2344 140.562 49.5312C141.258 49.8281 141.84 50.25 142.309 50.7969C142.785 51.3438 143.145 52 143.387 52.7656C143.629 53.5234 143.75 54.3672 143.75 55.2969V56.7031H133.672V54.4531H140.434V54.1953C140.434 53.7266 140.348 53.3086 140.176 52.9414C140.012 52.5664 139.762 52.2695 139.426 52.0508C139.09 51.832 138.66 51.7227 138.137 51.7227C137.691 51.7227 137.309 51.8203 136.988 52.0156C136.668 52.2109 136.406 52.4844 136.203 52.8359C136.008 53.1875 135.859 53.6016 135.758 54.0781C135.664 54.5469 135.617 55.0625 135.617 55.625V56.0938C135.617 56.6016 135.688 57.0703 135.828 57.5C135.977 57.9297 136.184 58.3008 136.449 58.6133C136.723 58.9258 137.051 59.168 137.434 59.3398C137.824 59.5117 138.266 59.5977 138.758 59.5977C139.367 59.5977 139.934 59.4805 140.457 59.2461C140.988 59.0039 141.445 58.6406 141.828 58.1562L143.469 59.9375C143.203 60.3203 142.84 60.6875 142.379 61.0391C141.926 61.3906 141.379 61.6797 140.738 61.9062C140.098 62.125 139.367 62.2344 138.547 62.2344ZM153.16 59.2344V44H156.559V62H153.5L153.16 59.2344ZM145.145 55.8125V55.5664C145.145 54.5977 145.254 53.7188 145.473 52.9297C145.691 52.1328 146.012 51.4492 146.434 50.8789C146.855 50.3086 147.375 49.8672 147.992 49.5547C148.609 49.2422 149.312 49.0859 150.102 49.0859C150.844 49.0859 151.492 49.2422 152.047 49.5547C152.609 49.8672 153.086 50.3125 153.477 50.8906C153.875 51.4609 154.195 52.1367 154.438 52.918C154.68 53.6914 154.855 54.5391 154.965 55.4609V56C154.855 56.8828 154.68 57.7031 154.438 58.4609C154.195 59.2188 153.875 59.8828 153.477 60.4531C153.086 61.0156 152.609 61.4531 152.047 61.7656C151.484 62.0781 150.828 62.2344 150.078 62.2344C149.289 62.2344 148.586 62.0742 147.969 61.7539C147.359 61.4336 146.844 60.9844 146.422 60.4062C146.008 59.8281 145.691 59.1484 145.473 58.3672C145.254 57.5859 145.145 56.7344 145.145 55.8125ZM148.52 55.5664V55.8125C148.52 56.3359 148.559 56.8242 148.637 57.2773C148.723 57.7305 148.859 58.1328 149.047 58.4844C149.242 58.8281 149.492 59.0977 149.797 59.293C150.109 59.4805 150.488 59.5742 150.934 59.5742C151.512 59.5742 151.988 59.4453 152.363 59.1875C152.738 58.9219 153.023 58.5586 153.219 58.0977C153.422 57.6367 153.539 57.1055 153.57 56.5039V54.9688C153.547 54.4766 153.477 54.0352 153.359 53.6445C153.25 53.2461 153.086 52.9062 152.867 52.625C152.656 52.3438 152.391 52.125 152.07 51.9688C151.758 51.8125 151.387 51.7344 150.957 51.7344C150.52 51.7344 150.145 51.8359 149.832 52.0391C149.52 52.2344 149.266 52.5039 149.07 52.8477C148.883 53.1914 148.742 53.5977 148.648 54.0664C148.562 54.5273 148.52 55.0273 148.52 55.5664ZM162.758 49.3203V62H159.371V49.3203H162.758ZM159.16 46.0156C159.16 45.5234 159.332 45.1172 159.676 44.7969C160.02 44.4766 160.48 44.3164 161.059 44.3164C161.629 44.3164 162.086 44.4766 162.43 44.7969C162.781 45.1172 162.957 45.5234 162.957 46.0156C162.957 46.5078 162.781 46.9141 162.43 47.2344C162.086 47.5547 161.629 47.7148 161.059 47.7148C160.48 47.7148 160.02 47.5547 159.676 47.2344C159.332 46.9141 159.16 46.5078 159.16 46.0156ZM170.785 59.5977C171.199 59.5977 171.566 59.5195 171.887 59.3633C172.207 59.1992 172.457 58.9727 172.637 58.6836C172.824 58.3867 172.922 58.0391 172.93 57.6406H176.105C176.098 58.5312 175.859 59.3242 175.391 60.0195C174.922 60.707 174.293 61.25 173.504 61.6484C172.715 62.0391 171.832 62.2344 170.855 62.2344C169.871 62.2344 169.012 62.0703 168.277 61.7422C167.551 61.4141 166.945 60.9609 166.461 60.3828C165.977 59.7969 165.613 59.1172 165.371 58.3438C165.129 57.5625 165.008 56.7266 165.008 55.8359V55.4961C165.008 54.5977 165.129 53.7617 165.371 52.9883C165.613 52.207 165.977 51.5273 166.461 50.9492C166.945 50.3633 167.551 49.9062 168.277 49.5781C169.004 49.25 169.855 49.0859 170.832 49.0859C171.871 49.0859 172.781 49.2852 173.562 49.6836C174.352 50.082 174.969 50.6523 175.414 51.3945C175.867 52.1289 176.098 53 176.105 54.0078H172.93C172.922 53.5859 172.832 53.2031 172.66 52.8594C172.496 52.5156 172.254 52.2422 171.934 52.0391C171.621 51.8281 171.234 51.7227 170.773 51.7227C170.281 51.7227 169.879 51.8281 169.566 52.0391C169.254 52.2422 169.012 52.5234 168.84 52.8828C168.668 53.2344 168.547 53.6367 168.477 54.0898C168.414 54.5352 168.383 55.0039 168.383 55.4961V55.8359C168.383 56.3281 168.414 56.8008 168.477 57.2539C168.539 57.707 168.656 58.1094 168.828 58.4609C169.008 58.8125 169.254 59.0898 169.566 59.293C169.879 59.4961 170.285 59.5977 170.785 59.5977ZM184.906 59.1406V53.4922C184.906 53.0859 184.84 52.7383 184.707 52.4492C184.574 52.1523 184.367 51.9219 184.086 51.7578C183.812 51.5938 183.457 51.5117 183.02 51.5117C182.645 51.5117 182.32 51.5781 182.047 51.7109C181.773 51.8359 181.562 52.0195 181.414 52.2617C181.266 52.4961 181.191 52.7734 181.191 53.0938H177.816C177.816 52.5547 177.941 52.043 178.191 51.5586C178.441 51.0742 178.805 50.6484 179.281 50.2812C179.758 49.9062 180.324 49.6133 180.98 49.4023C181.645 49.1914 182.387 49.0859 183.207 49.0859C184.191 49.0859 185.066 49.25 185.832 49.5781C186.598 49.9062 187.199 50.3984 187.637 51.0547C188.082 51.7109 188.305 52.5312 188.305 53.5156V58.9414C188.305 59.6367 188.348 60.207 188.434 60.6523C188.52 61.0898 188.645 61.4727 188.809 61.8008V62H185.398C185.234 61.6562 185.109 61.2266 185.023 60.7109C184.945 60.1875 184.906 59.6641 184.906 59.1406ZM185.352 54.2773L185.375 56.1875H183.488C183.043 56.1875 182.656 56.2383 182.328 56.3398C182 56.4414 181.73 56.5859 181.52 56.7734C181.309 56.9531 181.152 57.1641 181.051 57.4062C180.957 57.6484 180.91 57.9141 180.91 58.2031C180.91 58.4922 180.977 58.7539 181.109 58.9883C181.242 59.2148 181.434 59.3945 181.684 59.5273C181.934 59.6523 182.227 59.7148 182.562 59.7148C183.07 59.7148 183.512 59.6133 183.887 59.4102C184.262 59.207 184.551 58.957 184.754 58.6602C184.965 58.3633 185.074 58.082 185.082 57.8164L185.973 59.2461C185.848 59.5664 185.676 59.8984 185.457 60.2422C185.246 60.5859 184.977 60.9102 184.648 61.2148C184.32 61.5117 183.926 61.7578 183.465 61.9531C183.004 62.1406 182.457 62.2344 181.824 62.2344C181.02 62.2344 180.289 62.0742 179.633 61.7539C178.984 61.4258 178.469 60.9766 178.086 60.4062C177.711 59.8281 177.523 59.1719 177.523 58.4375C177.523 57.7734 177.648 57.1836 177.898 56.668C178.148 56.1523 178.516 55.7188 179 55.3672C179.492 55.0078 180.105 54.7383 180.84 54.5586C181.574 54.3711 182.426 54.2773 183.395 54.2773H185.352ZM194.469 44V62H191.082V44H194.469ZM200.82 44V62H197.434V44H200.82ZM207.371 60.5703L210.734 49.3203H214.355L209.258 63.9102C209.148 64.2305 209 64.5742 208.812 64.9414C208.633 65.3086 208.387 65.6562 208.074 65.9844C207.77 66.3203 207.383 66.5938 206.914 66.8047C206.453 67.0156 205.887 67.1211 205.215 67.1211C204.895 67.1211 204.633 67.1016 204.43 67.0625C204.227 67.0234 203.984 66.9688 203.703 66.8984V64.4258C203.789 64.4258 203.879 64.4258 203.973 64.4258C204.066 64.4336 204.156 64.4375 204.242 64.4375C204.688 64.4375 205.051 64.3867 205.332 64.2852C205.613 64.1836 205.84 64.0273 206.012 63.8164C206.184 63.6133 206.32 63.3477 206.422 63.0195L207.371 60.5703ZM205.965 49.3203L208.719 58.5078L209.199 62.082L206.902 62.3281L202.344 49.3203H205.965Z" fill="#888888"/>
<path d="M115.994 98.708V104.641H99.5806V98.708H115.994ZM102.151 86.0078V118H94.439V86.0078H102.151ZM121.18 86.0078V118H113.489V86.0078H121.18ZM124.805 106.354V105.893C124.805 104.15 125.054 102.546 125.552 101.081C126.05 99.6016 126.783 98.3198 127.75 97.2358C128.716 96.1519 129.91 95.3096 131.331 94.709C132.752 94.0938 134.393 93.7861 136.253 93.7861C138.128 93.7861 139.776 94.0938 141.197 94.709C142.632 95.3096 143.833 96.1519 144.8 97.2358C145.767 98.3198 146.5 99.6016 146.998 101.081C147.496 102.546 147.745 104.15 147.745 105.893V106.354C147.745 108.083 147.496 109.687 146.998 111.167C146.5 112.631 145.767 113.913 144.8 115.012C143.833 116.096 142.64 116.938 141.219 117.539C139.798 118.139 138.157 118.439 136.297 118.439C134.437 118.439 132.789 118.139 131.353 117.539C129.917 116.938 128.716 116.096 127.75 115.012C126.783 113.913 126.05 112.631 125.552 111.167C125.054 109.687 124.805 108.083 124.805 106.354ZM132.21 105.893V106.354C132.21 107.248 132.276 108.083 132.408 108.859C132.54 109.636 132.759 110.317 133.067 110.903C133.375 111.474 133.792 111.921 134.319 112.243C134.847 112.565 135.506 112.727 136.297 112.727C137.073 112.727 137.718 112.565 138.23 112.243C138.758 111.921 139.175 111.474 139.483 110.903C139.791 110.317 140.01 109.636 140.142 108.859C140.274 108.083 140.34 107.248 140.34 106.354V105.893C140.34 105.029 140.274 104.216 140.142 103.454C140.01 102.678 139.791 101.997 139.483 101.411C139.175 100.81 138.758 100.341 138.23 100.004C137.703 99.6675 137.044 99.499 136.253 99.499C135.477 99.499 134.825 99.6675 134.297 100.004C133.785 100.341 133.375 100.81 133.067 101.411C132.759 101.997 132.54 102.678 132.408 103.454C132.276 104.216 132.21 105.029 132.21 105.893ZM158.27 110.925L162.664 94.2256H167.3L165.652 102.597L161.302 118H157.588L158.27 110.925ZM156.534 94.2256L159.258 110.793L159.566 118H155.062L149.437 94.2256H156.534ZM171.211 110.441L173.958 94.2256H181.055L175.474 118H170.97L171.211 110.441ZM167.828 94.2256L172.266 110.881L172.947 118H169.19L164.927 102.641L163.345 94.2256H167.828ZM209.466 86.0078V118H201.753V86.0078H209.466ZM219.09 86.0078V91.9624H192.349V86.0078H219.09ZM216.475 106.354V105.893C216.475 104.15 216.724 102.546 217.222 101.081C217.72 99.6016 218.453 98.3198 219.419 97.2358C220.386 96.1519 221.58 95.3096 223.001 94.709C224.422 94.0938 226.062 93.7861 227.923 93.7861C229.798 93.7861 231.446 94.0938 232.867 94.709C234.302 95.3096 235.503 96.1519 236.47 97.2358C237.437 98.3198 238.169 99.6016 238.667 101.081C239.166 102.546 239.415 104.15 239.415 105.893V106.354C239.415 108.083 239.166 109.687 238.667 111.167C238.169 112.631 237.437 113.913 236.47 115.012C235.503 116.096 234.31 116.938 232.889 117.539C231.468 118.139 229.827 118.439 227.967 118.439C226.106 118.439 224.458 118.139 223.023 117.539C221.587 116.938 220.386 116.096 219.419 115.012C218.453 113.913 217.72 112.631 217.222 111.167C216.724 109.687 216.475 108.083 216.475 106.354ZM223.88 105.893V106.354C223.88 107.248 223.946 108.083 224.078 108.859C224.209 109.636 224.429 110.317 224.737 110.903C225.044 111.474 225.462 111.921 225.989 112.243C226.517 112.565 227.176 112.727 227.967 112.727C228.743 112.727 229.388 112.565 229.9 112.243C230.428 111.921 230.845 111.474 231.153 110.903C231.46 110.317 231.68 109.636 231.812 108.859C231.944 108.083 232.01 107.248 232.01 106.354V105.893C232.01 105.029 231.944 104.216 231.812 103.454C231.68 102.678 231.46 101.997 231.153 101.411C230.845 100.81 230.428 100.341 229.9 100.004C229.373 99.6675 228.714 99.499 227.923 99.499C227.146 99.499 226.495 99.6675 225.967 100.004C225.455 100.341 225.044 100.81 224.737 101.411C224.429 101.997 224.209 102.678 224.078 103.454C223.946 104.216 223.88 105.029 223.88 105.893ZM254.268 86.0078H266.858C269.319 86.0078 271.458 86.374 273.274 87.1064C275.091 87.8389 276.49 88.9229 277.471 90.3584C278.467 91.7939 278.965 93.5664 278.965 95.6758C278.965 97.5068 278.68 99.0376 278.108 100.268C277.537 101.499 276.739 102.517 275.713 103.322C274.703 104.113 273.523 104.765 272.176 105.278L269.649 106.706H259.08L259.036 100.751H266.858C267.84 100.751 268.653 100.576 269.297 100.224C269.942 99.8726 270.425 99.3745 270.748 98.73C271.084 98.0708 271.253 97.2871 271.253 96.3789C271.253 95.4561 271.084 94.665 270.748 94.0059C270.411 93.3467 269.913 92.8413 269.253 92.4897C268.609 92.1382 267.811 91.9624 266.858 91.9624H261.98V118H254.268V86.0078ZM271.78 118L264.705 103.85L272.879 103.806L280.042 117.67V118H271.78ZM297.159 112.221V94.2256H304.585V118H297.642L297.159 112.221ZM297.862 107.387L299.795 107.343C299.795 108.94 299.605 110.419 299.224 111.782C298.843 113.129 298.279 114.301 297.532 115.297C296.8 116.293 295.892 117.07 294.808 117.626C293.738 118.168 292.5 118.439 291.094 118.439C289.922 118.439 288.846 118.278 287.864 117.956C286.897 117.619 286.062 117.099 285.359 116.396C284.656 115.678 284.107 114.763 283.711 113.649C283.331 112.521 283.14 111.174 283.14 109.606V94.2256H290.545V109.65C290.545 110.178 290.611 110.632 290.743 111.013C290.875 111.394 291.065 111.716 291.314 111.979C291.563 112.229 291.871 112.419 292.237 112.551C292.618 112.668 293.05 112.727 293.533 112.727C294.646 112.727 295.518 112.492 296.148 112.023C296.778 111.555 297.217 110.917 297.466 110.112C297.73 109.306 297.862 108.398 297.862 107.387ZM315.945 99.3013V118H308.541V94.2256H315.484L315.945 99.3013ZM315.066 105.3L313.331 105.344C313.331 103.527 313.55 101.909 313.99 100.488C314.429 99.0522 315.052 97.8364 315.857 96.8403C316.663 95.8442 317.623 95.0898 318.736 94.5771C319.864 94.0498 321.116 93.7861 322.493 93.7861C323.592 93.7861 324.595 93.9473 325.503 94.2695C326.426 94.5918 327.217 95.1118 327.876 95.8296C328.55 96.5474 329.063 97.4995 329.415 98.686C329.781 99.8579 329.964 101.308 329.964 103.037V118H322.515V103.015C322.515 102.062 322.383 101.337 322.12 100.839C321.856 100.327 321.475 99.9751 320.977 99.7847C320.479 99.5942 319.871 99.499 319.153 99.499C318.392 99.499 317.747 99.6455 317.22 99.9385C316.692 100.231 316.268 100.642 315.945 101.169C315.638 101.682 315.411 102.29 315.264 102.993C315.132 103.696 315.066 104.465 315.066 105.3ZM345.85 107.871H339.544C339.544 106.582 339.632 105.446 339.808 104.465C339.998 103.469 340.32 102.575 340.774 101.784C341.229 100.993 341.844 100.261 342.62 99.5869C343.309 99.0156 343.902 98.4663 344.4 97.939C344.898 97.4116 345.279 96.877 345.542 96.335C345.806 95.793 345.938 95.2144 345.938 94.5991C345.938 93.8374 345.828 93.2148 345.608 92.7314C345.403 92.248 345.088 91.8892 344.664 91.6548C344.253 91.4058 343.733 91.2812 343.104 91.2812C342.591 91.2812 342.107 91.4058 341.653 91.6548C341.214 91.9038 340.855 92.292 340.577 92.8193C340.298 93.332 340.145 94.0132 340.115 94.8628H332.667C332.71 92.6802 333.194 90.9077 334.117 89.5454C335.054 88.1685 336.299 87.165 337.852 86.5352C339.419 85.8906 341.17 85.5684 343.104 85.5684C345.242 85.5684 347.081 85.8979 348.619 86.5571C350.157 87.2163 351.336 88.1978 352.156 89.5015C352.977 90.7905 353.387 92.3799 353.387 94.2695C353.387 95.5293 353.145 96.6279 352.662 97.5654C352.193 98.4883 351.556 99.3525 350.75 100.158C349.959 100.949 349.073 101.799 348.091 102.707C347.242 103.454 346.663 104.216 346.355 104.992C346.048 105.754 345.879 106.713 345.85 107.871ZM338.643 114.55C338.643 113.496 339.024 112.617 339.786 111.914C340.547 111.196 341.536 110.837 342.752 110.837C343.968 110.837 344.957 111.196 345.718 111.914C346.48 112.617 346.861 113.496 346.861 114.55C346.861 115.605 346.48 116.491 345.718 117.209C344.957 117.912 343.968 118.264 342.752 118.264C341.536 118.264 340.547 117.912 339.786 117.209C339.024 116.491 338.643 115.605 338.643 114.55Z" fill="#424241"/>
<path d="M1363 15C1363 6.71573 1356.28 0 1348 0H1134V167H1348C1356.28 167 1363 160.284 1363 152V15Z" fill="#3687FF"/>
<path d="M1260.77 81.3079C1263.96 81.3079 1267.09 82.2553 1269.74 84.0303C1272.4 85.8053 1274.47 88.3282 1275.69 91.2799C1276.92 94.2316 1277.24 97.4796 1276.61 100.613C1275.99 103.747 1274.45 106.625 1272.19 108.884C1269.93 111.143 1267.05 112.682 1263.92 113.305C1260.79 113.928 1257.54 113.608 1254.59 112.386C1251.64 111.163 1249.11 109.093 1247.34 106.436C1245.56 103.78 1244.62 100.657 1244.62 97.4617C1244.62 93.1774 1246.32 89.0686 1249.35 86.0392C1252.38 83.0098 1256.48 81.3079 1260.77 81.3079ZM1260.77 75.9233C1256.51 75.9233 1252.35 77.1865 1248.8 79.5532C1245.26 81.9198 1242.5 85.2837 1240.87 89.2193C1239.24 93.1549 1238.81 97.4856 1239.64 101.664C1240.48 105.842 1242.53 109.679 1245.54 112.692C1248.55 115.704 1252.39 117.755 1256.57 118.586C1260.75 119.417 1265.08 118.991 1269.01 117.361C1272.95 115.73 1276.31 112.97 1278.68 109.428C1281.04 105.886 1282.31 101.722 1282.31 97.4617C1282.31 91.7493 1280.04 86.271 1276 82.2317C1271.96 78.1925 1266.48 75.9233 1260.77 75.9233Z" fill="white"/>
<path d="M1274.23 49H1220.38C1218.96 49 1217.59 49.5673 1216.58 50.5771C1215.57 51.5869 1215 52.9565 1215 54.3846V108.231C1215 109.659 1215.57 111.028 1216.58 112.038C1217.59 113.048 1218.96 113.615 1220.38 113.615H1231.15V108.231H1220.38V70.5384H1279.62V54.3846C1279.62 52.9565 1279.05 51.5869 1278.04 50.5771C1277.03 49.5673 1275.66 49 1274.23 49ZM1220.38 65.1538V54.3846H1274.23V65.1538H1220.38Z" fill="white"/>
<path d="M1255.38 89.3849V105.539L1268.85 97.4618L1255.38 89.3849Z" fill="white"/>
</svg>
