<svg width="1363" height="301" viewBox="0 0 1363 301" fill="none" xmlns="http://www.w3.org/2000/svg">
<rect width="1363" height="301" rx="15" fill="#F0F0F0"/>
<path d="M0 15C0 6.71573 6.71573 0 15 0H37V301H15C6.71573 301 0 294.284 0 286V15Z" fill="#3687FF"/>
<path d="M99.6538 104.898H107.334L116.062 132.103L124.791 104.898H132.471L119.178 144H112.947L99.6538 104.898ZM94.981 104.898H102.93L104.407 134.869V144H94.981V104.898ZM129.195 104.898H137.171V144H127.718V134.869L129.195 104.898ZM156.856 144.537C154.493 144.537 152.38 144.17 150.518 143.436C148.656 142.684 147.081 141.655 145.792 140.348C144.52 139.041 143.545 137.537 142.864 135.836C142.202 134.135 141.871 132.336 141.871 130.438V129.417C141.871 127.287 142.166 125.318 142.757 123.509C143.348 121.683 144.225 120.09 145.389 118.729C146.552 117.368 148.012 116.312 149.766 115.56C151.521 114.79 153.562 114.405 155.889 114.405C157.948 114.405 159.792 114.736 161.421 115.399C163.051 116.061 164.429 117.01 165.557 118.246C166.703 119.481 167.571 120.976 168.162 122.73C168.771 124.485 169.075 126.454 169.075 128.639V132.318H145.335V126.651H160.24V125.953C160.258 124.986 160.088 124.163 159.729 123.482C159.389 122.802 158.888 122.283 158.226 121.925C157.563 121.567 156.757 121.388 155.809 121.388C154.824 121.388 154.009 121.603 153.365 122.032C152.738 122.462 152.246 123.053 151.888 123.805C151.548 124.539 151.306 125.389 151.163 126.356C151.019 127.323 150.948 128.343 150.948 129.417V130.438C150.948 131.512 151.091 132.488 151.377 133.365C151.682 134.243 152.111 134.994 152.667 135.621C153.239 136.23 153.92 136.704 154.708 137.044C155.513 137.385 156.426 137.555 157.447 137.555C158.682 137.555 159.9 137.322 161.099 136.856C162.299 136.391 163.328 135.621 164.188 134.547L168.296 139.435C167.706 140.276 166.864 141.091 165.772 141.878C164.698 142.666 163.409 143.311 161.905 143.812C160.401 144.295 158.718 144.537 156.856 144.537ZM189.458 137.34V102.75H198.562V144H190.398L189.458 137.34ZM171.626 129.82V129.256C171.626 127.054 171.868 125.049 172.352 123.241C172.835 121.415 173.551 119.848 174.5 118.541C175.449 117.216 176.631 116.196 178.045 115.479C179.459 114.763 181.089 114.405 182.933 114.405C184.58 114.405 186.021 114.79 187.256 115.56C188.492 116.312 189.548 117.368 190.425 118.729C191.303 120.09 192.019 121.683 192.574 123.509C193.129 125.318 193.549 127.269 193.836 129.364V130.035C193.549 132.005 193.129 133.867 192.574 135.621C192.019 137.358 191.303 138.897 190.425 140.24C189.548 141.583 188.483 142.639 187.229 143.409C185.994 144.161 184.544 144.537 182.879 144.537C181.035 144.537 179.406 144.17 177.991 143.436C176.595 142.702 175.422 141.673 174.473 140.348C173.542 139.023 172.835 137.465 172.352 135.675C171.868 133.884 171.626 131.933 171.626 129.82ZM180.677 129.256V129.82C180.677 130.912 180.748 131.924 180.892 132.855C181.035 133.786 181.277 134.61 181.617 135.326C181.975 136.024 182.44 136.57 183.013 136.964C183.604 137.358 184.329 137.555 185.188 137.555C186.352 137.555 187.31 137.277 188.062 136.722C188.832 136.167 189.396 135.379 189.754 134.359C190.13 133.338 190.291 132.139 190.237 130.76V128.639C190.273 127.457 190.193 126.419 189.996 125.523C189.799 124.61 189.485 123.849 189.056 123.241C188.644 122.632 188.116 122.175 187.471 121.871C186.845 121.549 186.102 121.388 185.242 121.388C184.401 121.388 183.685 121.585 183.094 121.979C182.521 122.372 182.055 122.927 181.697 123.644C181.339 124.342 181.08 125.174 180.918 126.141C180.757 127.09 180.677 128.128 180.677 129.256ZM213.252 114.942V144H204.175V114.942H213.252ZM203.638 107.45C203.638 106.161 204.104 105.104 205.035 104.281C205.966 103.457 207.174 103.045 208.66 103.045C210.146 103.045 211.355 103.457 212.286 104.281C213.217 105.104 213.682 106.161 213.682 107.45C213.682 108.739 213.217 109.795 212.286 110.619C211.355 111.442 210.146 111.854 208.66 111.854C207.174 111.854 205.966 111.442 205.035 110.619C204.104 109.795 203.638 108.739 203.638 107.45ZM231.111 137.555C231.953 137.555 232.669 137.403 233.26 137.098C233.868 136.776 234.325 136.328 234.629 135.755C234.952 135.165 235.104 134.457 235.086 133.634H243.599C243.617 135.818 243.08 137.734 241.988 139.381C240.914 141.01 239.445 142.281 237.583 143.194C235.739 144.09 233.654 144.537 231.326 144.537C229.052 144.537 227.065 144.17 225.364 143.436C223.663 142.684 222.24 141.646 221.094 140.321C219.966 138.978 219.116 137.411 218.543 135.621C217.988 133.831 217.71 131.888 217.71 129.793V129.176C217.71 127.081 217.988 125.139 218.543 123.348C219.116 121.54 219.966 119.973 221.094 118.648C222.24 117.306 223.654 116.267 225.337 115.533C227.038 114.781 229.017 114.405 231.272 114.405C233.689 114.405 235.82 114.862 237.664 115.775C239.526 116.688 240.985 118.013 242.042 119.75C243.098 121.486 243.617 123.59 243.599 126.061H235.086C235.104 125.183 234.97 124.396 234.683 123.697C234.397 122.999 233.949 122.444 233.34 122.032C232.75 121.603 231.989 121.388 231.058 121.388C230.127 121.388 229.375 121.594 228.802 122.005C228.229 122.417 227.79 122.99 227.486 123.724C227.199 124.44 227.002 125.264 226.895 126.195C226.806 127.126 226.761 128.119 226.761 129.176V129.793C226.761 130.868 226.806 131.879 226.895 132.828C227.002 133.759 227.208 134.583 227.513 135.299C227.817 135.997 228.256 136.552 228.829 136.964C229.402 137.358 230.162 137.555 231.111 137.555ZM262.559 136.695V124.718C262.559 123.894 262.443 123.187 262.21 122.596C261.977 122.005 261.61 121.549 261.109 121.227C260.608 120.886 259.936 120.716 259.095 120.716C258.414 120.716 257.833 120.833 257.349 121.065C256.866 121.298 256.499 121.647 256.248 122.113C255.997 122.578 255.872 123.169 255.872 123.885H246.822C246.822 122.542 247.117 121.298 247.708 120.152C248.317 118.989 249.176 117.977 250.286 117.118C251.414 116.258 252.757 115.596 254.314 115.13C255.89 114.647 257.645 114.405 259.578 114.405C261.888 114.405 263.947 114.79 265.755 115.56C267.581 116.33 269.022 117.485 270.079 119.024C271.135 120.546 271.663 122.462 271.663 124.771V136.668C271.663 138.566 271.771 140.007 271.985 140.992C272.2 141.959 272.505 142.809 272.898 143.543V144H263.821C263.392 143.105 263.069 142.013 262.854 140.724C262.658 139.417 262.559 138.074 262.559 136.695ZM263.66 126.249L263.714 131.083H259.712C258.871 131.083 258.155 131.199 257.564 131.432C256.991 131.664 256.526 131.987 256.167 132.398C255.827 132.792 255.577 133.24 255.416 133.741C255.272 134.243 255.201 134.771 255.201 135.326C255.201 135.863 255.326 136.346 255.577 136.776C255.845 137.188 256.203 137.51 256.651 137.743C257.098 137.975 257.6 138.092 258.155 138.092C259.157 138.092 260.008 137.904 260.706 137.528C261.422 137.134 261.968 136.66 262.344 136.104C262.72 135.549 262.908 135.03 262.908 134.547L264.896 138.253C264.537 138.969 264.126 139.694 263.66 140.428C263.213 141.162 262.649 141.843 261.968 142.469C261.306 143.078 260.491 143.579 259.524 143.973C258.558 144.349 257.385 144.537 256.006 144.537C254.216 144.537 252.569 144.17 251.065 143.436C249.579 142.702 248.388 141.681 247.493 140.375C246.598 139.05 246.15 137.528 246.15 135.809C246.15 134.305 246.419 132.962 246.956 131.781C247.511 130.599 248.344 129.597 249.454 128.773C250.564 127.949 251.978 127.323 253.697 126.893C255.416 126.463 257.439 126.249 259.766 126.249H263.66ZM286.246 102.75V144H277.168V102.75H286.246ZM301.392 102.75V144H292.315V102.75H301.392ZM315.894 140.589L323.414 114.942H333.135L321.453 148.324C321.202 149.058 320.871 149.846 320.459 150.687C320.048 151.546 319.484 152.361 318.768 153.131C318.051 153.901 317.129 154.527 316.001 155.011C314.891 155.494 313.513 155.736 311.866 155.736C310.988 155.736 310.344 155.691 309.932 155.602C309.538 155.53 308.93 155.396 308.106 155.199V148.727C308.339 148.727 308.536 148.727 308.697 148.727C308.876 148.727 309.073 148.727 309.288 148.727C310.254 148.727 311.024 148.628 311.597 148.431C312.188 148.234 312.636 147.948 312.94 147.572C313.262 147.196 313.513 146.739 313.692 146.202L315.894 140.589ZM313.987 114.942L319.708 135.272L320.701 144.859H314.632L304.292 114.942H313.987Z" fill="black"/>
<path d="M96.563 55.1172H100.904L107.295 73.3862L113.687 55.1172H118.028L109.039 80H105.552L96.563 55.1172ZM94.2217 55.1172H98.5454L99.3315 72.9248V80H94.2217V55.1172ZM116.045 55.1172H120.386V80H115.259V72.9248L116.045 55.1172ZM123.787 70.9424V70.5835C123.787 69.2277 123.981 67.9801 124.368 66.8408C124.756 65.6901 125.319 64.6932 126.06 63.8501C126.801 63.007 127.712 62.3519 128.794 61.8848C129.877 61.4062 131.119 61.167 132.52 61.167C133.921 61.167 135.169 61.4062 136.263 61.8848C137.356 62.3519 138.274 63.007 139.014 63.8501C139.766 64.6932 140.336 65.6901 140.723 66.8408C141.111 67.9801 141.304 69.2277 141.304 70.5835V70.9424C141.304 72.2868 141.111 73.5343 140.723 74.6851C140.336 75.8244 139.766 76.8213 139.014 77.6758C138.274 78.5189 137.362 79.174 136.28 79.6411C135.197 80.1082 133.956 80.3418 132.554 80.3418C131.153 80.3418 129.905 80.1082 128.812 79.6411C127.729 79.174 126.812 78.5189 126.06 77.6758C125.319 76.8213 124.756 75.8244 124.368 74.6851C123.981 73.5343 123.787 72.2868 123.787 70.9424ZM128.709 70.5835V70.9424C128.709 71.7171 128.777 72.4406 128.914 73.1128C129.051 73.785 129.267 74.3774 129.563 74.8901C129.871 75.3914 130.27 75.7845 130.76 76.0693C131.25 76.3542 131.848 76.4966 132.554 76.4966C133.238 76.4966 133.825 76.3542 134.314 76.0693C134.804 75.7845 135.197 75.3914 135.494 74.8901C135.79 74.3774 136.006 73.785 136.143 73.1128C136.291 72.4406 136.365 71.7171 136.365 70.9424V70.5835C136.365 69.8315 136.291 69.1252 136.143 68.4644C136.006 67.7922 135.784 67.1997 135.477 66.687C135.18 66.1629 134.787 65.7528 134.297 65.4565C133.807 65.1603 133.215 65.0122 132.52 65.0122C131.825 65.0122 131.233 65.1603 130.743 65.4565C130.264 65.7528 129.871 66.1629 129.563 66.687C129.267 67.1997 129.051 67.7922 128.914 68.4644C128.777 69.1252 128.709 69.8315 128.709 70.5835ZM149.131 53.75V80H144.209V53.75H149.131ZM148.431 70.105H147.081C147.092 68.8175 147.263 67.6326 147.593 66.5503C147.924 65.4565 148.396 64.5109 149.012 63.7134C149.627 62.9045 150.362 62.2778 151.216 61.8335C152.082 61.3892 153.039 61.167 154.087 61.167C154.999 61.167 155.825 61.298 156.565 61.5601C157.317 61.8107 157.961 62.2209 158.497 62.7905C159.043 63.3488 159.465 64.0837 159.761 64.9951C160.057 65.9066 160.206 67.0117 160.206 68.3105V80H155.25V68.2764C155.25 67.4561 155.13 66.8123 154.891 66.3452C154.663 65.8667 154.327 65.5306 153.882 65.3369C153.449 65.1318 152.914 65.0293 152.276 65.0293C151.569 65.0293 150.966 65.1603 150.464 65.4224C149.974 65.6844 149.581 66.049 149.285 66.5161C148.989 66.9718 148.772 67.5073 148.636 68.1226C148.499 68.7378 148.431 69.3986 148.431 70.105ZM173.929 75.8301V67.5928C173.929 67.0003 173.832 66.4933 173.638 66.0718C173.444 65.6388 173.143 65.3027 172.732 65.0635C172.334 64.8242 171.815 64.7046 171.177 64.7046C170.63 64.7046 170.158 64.8014 169.759 64.9951C169.36 65.1774 169.052 65.4451 168.836 65.7983C168.619 66.1401 168.511 66.5446 168.511 67.0117H163.589C163.589 66.2256 163.772 65.4793 164.136 64.7729C164.501 64.0666 165.031 63.4456 165.726 62.9102C166.421 62.3633 167.247 61.936 168.204 61.6284C169.172 61.3208 170.254 61.167 171.451 61.167C172.886 61.167 174.162 61.4062 175.279 61.8848C176.395 62.3633 177.273 63.0811 177.911 64.0381C178.56 64.9951 178.885 66.1914 178.885 67.627V75.5396C178.885 76.5535 178.947 77.3853 179.073 78.0347C179.198 78.6727 179.38 79.231 179.62 79.7095V80H174.646C174.407 79.4987 174.225 78.8721 174.1 78.1201C173.986 77.3568 173.929 76.5934 173.929 75.8301ZM174.578 68.7378L174.612 71.5234H171.861C171.211 71.5234 170.647 71.5975 170.169 71.7456C169.69 71.8937 169.297 72.1045 168.99 72.3779C168.682 72.64 168.454 72.9476 168.306 73.3008C168.169 73.654 168.101 74.0413 168.101 74.4629C168.101 74.8844 168.198 75.2661 168.392 75.6079C168.585 75.9383 168.864 76.2004 169.229 76.394C169.594 76.5763 170.021 76.6675 170.511 76.6675C171.251 76.6675 171.895 76.5194 172.442 76.2231C172.989 75.9269 173.41 75.5623 173.707 75.1294C174.014 74.6965 174.174 74.2863 174.185 73.8989L175.484 75.9839C175.302 76.451 175.051 76.9352 174.732 77.4365C174.424 77.9378 174.031 78.4106 173.553 78.855C173.074 79.2879 172.499 79.6468 171.827 79.9316C171.154 80.2051 170.357 80.3418 169.434 80.3418C168.261 80.3418 167.195 80.1082 166.238 79.6411C165.293 79.1626 164.541 78.5075 163.982 77.6758C163.436 76.8327 163.162 75.8757 163.162 74.8047C163.162 73.8363 163.344 72.9761 163.709 72.2241C164.074 71.4722 164.609 70.8398 165.315 70.3271C166.033 69.8031 166.928 69.41 167.999 69.1479C169.069 68.8745 170.311 68.7378 171.724 68.7378H174.578ZM187.601 65.3369V80H182.662V61.5088H187.293L187.601 65.3369ZM186.917 70.105H185.55C185.55 68.8175 185.704 67.6326 186.011 66.5503C186.33 65.4565 186.792 64.5109 187.396 63.7134C188.011 62.9045 188.768 62.2778 189.668 61.8335C190.569 61.3892 191.611 61.167 192.796 61.167C193.616 61.167 194.368 61.2923 195.052 61.543C195.735 61.7822 196.322 62.1639 196.812 62.688C197.313 63.2007 197.701 63.8729 197.974 64.7046C198.248 65.5249 198.384 66.5104 198.384 67.6611V80H193.462V68.208C193.462 67.3649 193.348 66.7155 193.121 66.2598C192.893 65.804 192.568 65.485 192.146 65.3027C191.736 65.1204 191.241 65.0293 190.66 65.0293C190.022 65.0293 189.463 65.1603 188.985 65.4224C188.518 65.6844 188.13 66.049 187.823 66.5161C187.515 66.9718 187.287 67.5073 187.139 68.1226C186.991 68.7378 186.917 69.3986 186.917 70.105ZM197.923 69.541L196.163 69.7632C196.163 68.5555 196.311 67.4333 196.607 66.3965C196.915 65.3597 197.365 64.4482 197.957 63.6621C198.561 62.876 199.307 62.2664 200.196 61.8335C201.084 61.3892 202.11 61.167 203.272 61.167C204.161 61.167 204.97 61.298 205.699 61.5601C206.428 61.8107 207.049 62.2152 207.562 62.7734C208.086 63.3203 208.484 64.0381 208.758 64.9268C209.043 65.8154 209.185 66.9035 209.185 68.1909V80H204.246V68.1909C204.246 67.3364 204.132 66.687 203.904 66.2427C203.688 65.7869 203.369 65.4736 202.947 65.3027C202.537 65.1204 202.047 65.0293 201.478 65.0293C200.885 65.0293 200.367 65.1489 199.922 65.3882C199.478 65.616 199.108 65.9351 198.812 66.3452C198.515 66.7554 198.293 67.2339 198.145 67.7808C197.997 68.3162 197.923 68.903 197.923 69.541ZM217.918 65.3369V80H212.979V61.5088H217.61L217.918 65.3369ZM217.234 70.105H215.867C215.867 68.8175 216.021 67.6326 216.329 66.5503C216.648 65.4565 217.109 64.5109 217.713 63.7134C218.328 62.9045 219.086 62.2778 219.986 61.8335C220.886 61.3892 221.928 61.167 223.113 61.167C223.934 61.167 224.686 61.2923 225.369 61.543C226.053 61.7822 226.639 62.1639 227.129 62.688C227.631 63.2007 228.018 63.8729 228.292 64.7046C228.565 65.5249 228.702 66.5104 228.702 67.6611V80H223.78V68.208C223.78 67.3649 223.666 66.7155 223.438 66.2598C223.21 65.804 222.885 65.485 222.464 65.3027C222.054 65.1204 221.558 65.0293 220.977 65.0293C220.339 65.0293 219.781 65.1603 219.302 65.4224C218.835 65.6844 218.448 66.049 218.14 66.5161C217.833 66.9718 217.605 67.5073 217.457 68.1226C217.308 68.7378 217.234 69.3986 217.234 70.105ZM228.24 69.541L226.48 69.7632C226.48 68.5555 226.628 67.4333 226.924 66.3965C227.232 65.3597 227.682 64.4482 228.274 63.6621C228.878 62.876 229.625 62.2664 230.513 61.8335C231.402 61.3892 232.427 61.167 233.589 61.167C234.478 61.167 235.287 61.298 236.016 61.5601C236.745 61.8107 237.366 62.2152 237.879 62.7734C238.403 63.3203 238.802 64.0381 239.075 64.9268C239.36 65.8154 239.502 66.9035 239.502 68.1909V80H234.563V68.1909C234.563 67.3364 234.45 66.687 234.222 66.2427C234.005 65.7869 233.686 65.4736 233.265 65.3027C232.854 65.1204 232.365 65.0293 231.795 65.0293C231.202 65.0293 230.684 65.1489 230.24 65.3882C229.795 65.616 229.425 65.9351 229.129 66.3452C228.833 66.7554 228.611 67.2339 228.462 67.7808C228.314 68.3162 228.24 68.903 228.24 69.541ZM253.294 75.8301V67.5928C253.294 67.0003 253.197 66.4933 253.003 66.0718C252.81 65.6388 252.508 65.3027 252.098 65.0635C251.699 64.8242 251.181 64.7046 250.542 64.7046C249.996 64.7046 249.523 64.8014 249.124 64.9951C248.725 65.1774 248.418 65.4451 248.201 65.7983C247.985 66.1401 247.876 66.5446 247.876 67.0117H242.955C242.955 66.2256 243.137 65.4793 243.501 64.7729C243.866 64.0666 244.396 63.4456 245.091 62.9102C245.786 62.3633 246.612 61.936 247.569 61.6284C248.537 61.3208 249.62 61.167 250.816 61.167C252.251 61.167 253.528 61.4062 254.644 61.8848C255.761 62.3633 256.638 63.0811 257.276 64.0381C257.925 64.9951 258.25 66.1914 258.25 67.627V75.5396C258.25 76.5535 258.313 77.3853 258.438 78.0347C258.563 78.6727 258.746 79.231 258.985 79.7095V80H254.012C253.772 79.4987 253.59 78.8721 253.465 78.1201C253.351 77.3568 253.294 76.5934 253.294 75.8301ZM253.943 68.7378L253.978 71.5234H251.226C250.577 71.5234 250.013 71.5975 249.534 71.7456C249.056 71.8937 248.663 72.1045 248.355 72.3779C248.047 72.64 247.819 72.9476 247.671 73.3008C247.535 73.654 247.466 74.0413 247.466 74.4629C247.466 74.8844 247.563 75.2661 247.757 75.6079C247.951 75.9383 248.23 76.2004 248.594 76.394C248.959 76.5763 249.386 76.6675 249.876 76.6675C250.617 76.6675 251.26 76.5194 251.807 76.2231C252.354 75.9269 252.776 75.5623 253.072 75.1294C253.379 74.6965 253.539 74.2863 253.55 73.8989L254.849 75.9839C254.667 76.451 254.416 76.9352 254.097 77.4365C253.79 77.9378 253.396 78.4106 252.918 78.855C252.439 79.2879 251.864 79.6468 251.192 79.9316C250.52 80.2051 249.722 80.3418 248.799 80.3418C247.626 80.3418 246.561 80.1082 245.604 79.6411C244.658 79.1626 243.906 78.5075 243.348 77.6758C242.801 76.8327 242.527 75.8757 242.527 74.8047C242.527 73.8363 242.71 72.9761 243.074 72.2241C243.439 71.4722 243.974 70.8398 244.681 70.3271C245.398 69.8031 246.293 69.41 247.364 69.1479C248.435 68.8745 249.677 68.7378 251.089 68.7378H253.943ZM272.964 75.9668V53.75H277.92V80H273.46L272.964 75.9668ZM261.275 70.9766V70.6177C261.275 69.2049 261.434 67.9232 261.753 66.7725C262.072 65.6104 262.54 64.6134 263.155 63.7817C263.77 62.95 264.528 62.3063 265.428 61.8506C266.328 61.3949 267.353 61.167 268.504 61.167C269.586 61.167 270.532 61.3949 271.341 61.8506C272.161 62.3063 272.856 62.9557 273.426 63.7988C274.007 64.6305 274.474 65.616 274.827 66.7554C275.18 67.8833 275.437 69.1195 275.596 70.4639V71.25C275.437 72.5374 275.18 73.7337 274.827 74.8389C274.474 75.944 274.007 76.9124 273.426 77.7441C272.856 78.5645 272.161 79.2025 271.341 79.6582C270.521 80.1139 269.563 80.3418 268.47 80.3418C267.319 80.3418 266.294 80.1082 265.394 79.6411C264.505 79.174 263.753 78.5189 263.138 77.6758C262.534 76.8327 262.072 75.8415 261.753 74.7021C261.434 73.5628 261.275 72.321 261.275 70.9766ZM266.197 70.6177V70.9766C266.197 71.7399 266.254 72.452 266.368 73.1128C266.493 73.7736 266.692 74.3604 266.966 74.873C267.251 75.3743 267.615 75.7674 268.06 76.0522C268.515 76.3257 269.068 76.4624 269.717 76.4624C270.56 76.4624 271.255 76.2744 271.802 75.8984C272.349 75.5111 272.765 74.9813 273.05 74.3091C273.346 73.6369 273.517 72.8621 273.562 71.9849V69.7461C273.528 69.0283 273.426 68.3846 273.255 67.8149C273.095 67.2339 272.856 66.7383 272.537 66.3281C272.229 65.918 271.842 65.599 271.375 65.3711C270.919 65.1432 270.378 65.0293 269.751 65.0293C269.113 65.0293 268.567 65.1774 268.111 65.4736C267.655 65.7585 267.285 66.1515 267 66.6528C266.727 67.1541 266.521 67.7466 266.385 68.4302C266.259 69.1024 266.197 69.8315 266.197 70.6177ZM290.755 61.5088H295.694V81.1108C295.694 82.478 295.443 83.6344 294.942 84.5801C294.441 85.5257 293.717 86.2435 292.771 86.7334C291.826 87.2233 290.681 87.4683 289.336 87.4683C288.915 87.4683 288.505 87.4455 288.106 87.3999C287.696 87.3543 287.274 87.2803 286.841 87.1777L286.858 83.4009C287.132 83.4465 287.4 83.4806 287.662 83.5034C287.912 83.5376 288.169 83.5547 288.431 83.5547C288.943 83.5547 289.371 83.4692 289.712 83.2983C290.054 83.1274 290.311 82.8597 290.481 82.4951C290.664 82.1419 290.755 81.6805 290.755 81.1108V61.5088ZM290.362 56.6895C290.362 55.9717 290.612 55.3792 291.114 54.9121C291.626 54.445 292.299 54.2114 293.13 54.2114C293.973 54.2114 294.646 54.445 295.147 54.9121C295.648 55.3792 295.899 55.9717 295.899 56.6895C295.899 57.4072 295.648 57.9997 295.147 58.4668C294.646 58.9339 293.973 59.1675 293.13 59.1675C292.299 59.1675 291.626 58.9339 291.114 58.4668C290.612 57.9997 290.362 57.4072 290.362 56.6895ZM309.588 75.8301V67.5928C309.588 67.0003 309.491 66.4933 309.297 66.0718C309.104 65.6388 308.802 65.3027 308.392 65.0635C307.993 64.8242 307.474 64.7046 306.836 64.7046C306.29 64.7046 305.817 64.8014 305.418 64.9951C305.019 65.1774 304.712 65.4451 304.495 65.7983C304.279 66.1401 304.17 66.5446 304.17 67.0117H299.249C299.249 66.2256 299.431 65.4793 299.795 64.7729C300.16 64.0666 300.69 63.4456 301.385 62.9102C302.08 62.3633 302.906 61.936 303.863 61.6284C304.831 61.3208 305.914 61.167 307.11 61.167C308.545 61.167 309.821 61.4062 310.938 61.8848C312.055 62.3633 312.932 63.0811 313.57 64.0381C314.219 64.9951 314.544 66.1914 314.544 67.627V75.5396C314.544 76.5535 314.607 77.3853 314.732 78.0347C314.857 78.6727 315.04 79.231 315.279 79.7095V80H310.306C310.066 79.4987 309.884 78.8721 309.759 78.1201C309.645 77.3568 309.588 76.5934 309.588 75.8301ZM310.237 68.7378L310.271 71.5234H307.52C306.871 71.5234 306.307 71.5975 305.828 71.7456C305.35 71.8937 304.957 72.1045 304.649 72.3779C304.341 72.64 304.113 72.9476 303.965 73.3008C303.829 73.654 303.76 74.0413 303.76 74.4629C303.76 74.8844 303.857 75.2661 304.051 75.6079C304.244 75.9383 304.524 76.2004 304.888 76.394C305.253 76.5763 305.68 76.6675 306.17 76.6675C306.91 76.6675 307.554 76.5194 308.101 76.2231C308.648 75.9269 309.069 75.5623 309.366 75.1294C309.673 74.6965 309.833 74.2863 309.844 73.8989L311.143 75.9839C310.961 76.451 310.71 76.9352 310.391 77.4365C310.083 77.9378 309.69 78.4106 309.212 78.855C308.733 79.2879 308.158 79.6468 307.486 79.9316C306.814 80.2051 306.016 80.3418 305.093 80.3418C303.92 80.3418 302.854 80.1082 301.897 79.6411C300.952 79.1626 300.2 78.5075 299.642 77.6758C299.095 76.8327 298.821 75.8757 298.821 74.8047C298.821 73.8363 299.004 72.9761 299.368 72.2241C299.733 71.4722 300.268 70.8398 300.975 70.3271C301.692 69.8031 302.587 69.41 303.658 69.1479C304.729 68.8745 305.971 68.7378 307.383 68.7378H310.237ZM324.61 80H319.654V59.8682C319.654 58.4668 319.927 57.2876 320.474 56.3306C321.032 55.3621 321.813 54.633 322.815 54.1431C323.829 53.6418 325.031 53.3911 326.421 53.3911C326.877 53.3911 327.316 53.4253 327.737 53.4937C328.159 53.5506 328.569 53.6247 328.968 53.7158L328.917 57.4243C328.7 57.3674 328.472 57.3275 328.233 57.3047C327.994 57.2819 327.715 57.2705 327.396 57.2705C326.803 57.2705 326.296 57.373 325.875 57.5781C325.464 57.7718 325.151 58.0623 324.935 58.4497C324.718 58.8371 324.61 59.3099 324.61 59.8682V80ZM328.301 61.5088V64.9951H316.902V61.5088H328.301ZM337.154 80H332.198V59.8682C332.198 58.4668 332.471 57.2876 333.018 56.3306C333.576 55.3621 334.357 54.633 335.359 54.1431C336.373 53.6418 337.575 53.3911 338.965 53.3911C339.421 53.3911 339.86 53.4253 340.281 53.4937C340.703 53.5506 341.113 53.6247 341.512 53.7158L341.46 57.4243C341.244 57.3674 341.016 57.3275 340.777 57.3047C340.538 57.2819 340.258 57.2705 339.939 57.2705C339.347 57.2705 338.84 57.373 338.418 57.5781C338.008 57.7718 337.695 58.0623 337.479 58.4497C337.262 58.8371 337.154 59.3099 337.154 59.8682V80ZM340.845 61.5088V64.9951H329.446V61.5088H340.845ZM353.406 75.8301V67.5928C353.406 67.0003 353.309 66.4933 353.116 66.0718C352.922 65.6388 352.62 65.3027 352.21 65.0635C351.811 64.8242 351.293 64.7046 350.655 64.7046C350.108 64.7046 349.635 64.8014 349.236 64.9951C348.838 65.1774 348.53 65.4451 348.313 65.7983C348.097 66.1401 347.989 66.5446 347.989 67.0117H343.067C343.067 66.2256 343.249 65.4793 343.614 64.7729C343.978 64.0666 344.508 63.4456 345.203 62.9102C345.898 62.3633 346.724 61.936 347.681 61.6284C348.65 61.3208 349.732 61.167 350.928 61.167C352.364 61.167 353.64 61.4062 354.756 61.8848C355.873 62.3633 356.75 63.0811 357.388 64.0381C358.038 64.9951 358.362 66.1914 358.362 67.627V75.5396C358.362 76.5535 358.425 77.3853 358.55 78.0347C358.676 78.6727 358.858 79.231 359.097 79.7095V80H354.124C353.885 79.4987 353.702 78.8721 353.577 78.1201C353.463 77.3568 353.406 76.5934 353.406 75.8301ZM354.056 68.7378L354.09 71.5234H351.338C350.689 71.5234 350.125 71.5975 349.646 71.7456C349.168 71.8937 348.775 72.1045 348.467 72.3779C348.16 72.64 347.932 72.9476 347.784 73.3008C347.647 73.654 347.579 74.0413 347.579 74.4629C347.579 74.8844 347.675 75.2661 347.869 75.6079C348.063 75.9383 348.342 76.2004 348.707 76.394C349.071 76.5763 349.498 76.6675 349.988 76.6675C350.729 76.6675 351.373 76.5194 351.919 76.2231C352.466 75.9269 352.888 75.5623 353.184 75.1294C353.492 74.6965 353.651 74.2863 353.663 73.8989L354.961 75.9839C354.779 76.451 354.528 76.9352 354.209 77.4365C353.902 77.9378 353.509 78.4106 353.03 78.855C352.552 79.2879 351.976 79.6468 351.304 79.9316C350.632 80.2051 349.834 80.3418 348.912 80.3418C347.738 80.3418 346.673 80.1082 345.716 79.6411C344.77 79.1626 344.018 78.5075 343.46 77.6758C342.913 76.8327 342.64 75.8757 342.64 74.8047C342.64 73.8363 342.822 72.9761 343.187 72.2241C343.551 71.4722 344.087 70.8398 344.793 70.3271C345.511 69.8031 346.405 69.41 347.476 69.1479C348.547 68.8745 349.789 68.7378 351.202 68.7378H354.056ZM367.352 53.75V80H362.413V53.75H367.352Z" fill="#888888"/>
<rect x="92" y="181" width="1179" height="80" rx="13.3333" fill="#CCCCCC"/>
<rect x="107" y="196.333" width="208" height="49.3333" rx="4.66667" fill="#888888" stroke="#888888" stroke-width="4"/>
<path d="M183.833 213.167V228.333H180.177V213.167H183.833ZM189.729 219.479V222.292H182.792V219.479H189.729ZM190.323 213.167V215.99H182.792V213.167H190.323ZM195.385 212.333V228.333H191.865V212.333H195.385ZM204.135 225.594V217.062H207.656V228.333H204.365L204.135 225.594ZM204.469 223.302L205.385 223.281C205.385 224.038 205.295 224.74 205.115 225.385C204.934 226.024 204.667 226.58 204.313 227.052C203.965 227.524 203.535 227.892 203.021 228.156C202.514 228.413 201.927 228.542 201.26 228.542C200.705 228.542 200.194 228.465 199.729 228.312C199.271 228.153 198.875 227.906 198.542 227.573C198.208 227.233 197.948 226.799 197.76 226.271C197.58 225.736 197.49 225.097 197.49 224.354V217.062H201V224.375C201 224.625 201.031 224.84 201.094 225.021C201.156 225.201 201.247 225.354 201.365 225.479C201.483 225.597 201.628 225.687 201.802 225.75C201.983 225.806 202.188 225.833 202.417 225.833C202.944 225.833 203.358 225.722 203.656 225.5C203.955 225.278 204.163 224.976 204.281 224.594C204.406 224.212 204.469 223.781 204.469 223.302ZM215.531 217.062V219.5H208.74V217.062H215.531ZM210.167 214.26H213.677V224.656C213.677 224.955 213.712 225.187 213.781 225.354C213.851 225.514 213.969 225.628 214.135 225.698C214.309 225.76 214.538 225.792 214.823 225.792C215.024 225.792 215.191 225.788 215.323 225.781C215.455 225.767 215.58 225.75 215.698 225.729V228.24C215.399 228.337 215.087 228.41 214.76 228.458C214.434 228.514 214.087 228.542 213.719 228.542C212.969 228.542 212.326 228.424 211.792 228.187C211.264 227.951 210.861 227.58 210.583 227.073C210.306 226.566 210.167 225.906 210.167 225.094V214.26ZM222.865 217.062V219.5H216.073V217.062H222.865ZM217.5 214.26H221.01V224.656C221.01 224.955 221.045 225.187 221.115 225.354C221.184 225.514 221.302 225.628 221.469 225.698C221.642 225.76 221.872 225.792 222.156 225.792C222.358 225.792 222.524 225.788 222.656 225.781C222.788 225.767 222.913 225.75 223.031 225.729V228.24C222.733 228.337 222.42 228.41 222.094 228.458C221.767 228.514 221.42 228.542 221.052 228.542C220.302 228.542 219.66 228.424 219.125 228.187C218.597 227.951 218.194 227.58 217.917 227.073C217.639 226.566 217.5 225.906 217.5 225.094V214.26ZM229.719 228.542C228.802 228.542 227.983 228.399 227.26 228.115C226.538 227.823 225.927 227.424 225.427 226.917C224.934 226.41 224.556 225.826 224.292 225.167C224.035 224.507 223.906 223.809 223.906 223.073V222.677C223.906 221.851 224.021 221.087 224.25 220.385C224.479 219.677 224.819 219.059 225.271 218.531C225.722 218.003 226.288 217.594 226.969 217.302C227.649 217.003 228.441 216.854 229.344 216.854C230.142 216.854 230.858 216.983 231.49 217.24C232.122 217.497 232.656 217.865 233.094 218.344C233.538 218.823 233.875 219.403 234.104 220.083C234.34 220.764 234.458 221.528 234.458 222.375V223.802H225.25V221.604H231.031V221.333C231.038 220.958 230.972 220.639 230.833 220.375C230.701 220.111 230.507 219.91 230.25 219.771C229.993 219.632 229.681 219.562 229.312 219.562C228.931 219.562 228.615 219.646 228.365 219.812C228.122 219.979 227.931 220.208 227.792 220.5C227.66 220.785 227.566 221.115 227.51 221.49C227.455 221.865 227.427 222.26 227.427 222.677V223.073C227.427 223.49 227.483 223.868 227.594 224.208C227.712 224.549 227.878 224.84 228.094 225.083C228.316 225.319 228.58 225.503 228.885 225.635C229.198 225.767 229.552 225.833 229.948 225.833C230.427 225.833 230.899 225.743 231.365 225.562C231.83 225.382 232.229 225.083 232.562 224.667L234.156 226.562C233.927 226.889 233.601 227.205 233.177 227.51C232.76 227.816 232.26 228.066 231.677 228.26C231.094 228.448 230.441 228.542 229.719 228.542ZM239.427 219.854V228.333H235.917V217.062H239.198L239.427 219.854ZM242.76 216.979L242.698 220.24C242.559 220.226 242.372 220.208 242.135 220.187C241.899 220.167 241.701 220.156 241.542 220.156C241.132 220.156 240.778 220.205 240.479 220.302C240.187 220.392 239.944 220.531 239.75 220.719C239.562 220.899 239.424 221.128 239.333 221.406C239.25 221.684 239.212 222.007 239.219 222.375L238.583 221.958C238.583 221.201 238.656 220.514 238.802 219.896C238.955 219.271 239.17 218.733 239.448 218.281C239.726 217.823 240.062 217.472 240.458 217.229C240.854 216.979 241.299 216.854 241.792 216.854C241.965 216.854 242.135 216.865 242.302 216.885C242.476 216.906 242.628 216.937 242.76 216.979Z" fill="white"/>
<rect x="339" y="196.333" width="208" height="49.3333" rx="4.66667" fill="#888888" stroke="#888888" stroke-width="4"/>
<path d="M419.073 225.521V228.333H411.406V225.521H419.073ZM412.708 213.167V228.333H409.052V213.167H412.708ZM426.302 225.5V220.854C426.302 220.535 426.257 220.26 426.167 220.031C426.076 219.802 425.934 219.625 425.74 219.5C425.545 219.368 425.285 219.302 424.958 219.302C424.694 219.302 424.469 219.347 424.281 219.437C424.094 219.528 423.951 219.663 423.854 219.844C423.757 220.024 423.708 220.253 423.708 220.531H420.198C420.198 220.01 420.312 219.528 420.542 219.083C420.778 218.632 421.111 218.24 421.542 217.906C421.979 217.573 422.5 217.316 423.104 217.135C423.715 216.948 424.396 216.854 425.146 216.854C426.042 216.854 426.84 217.003 427.542 217.302C428.25 217.601 428.809 218.049 429.219 218.646C429.628 219.236 429.833 219.979 429.833 220.875V225.49C429.833 226.226 429.875 226.785 429.958 227.167C430.042 227.542 430.16 227.872 430.312 228.156V228.333H426.792C426.625 227.986 426.5 227.562 426.417 227.062C426.34 226.556 426.302 226.035 426.302 225.5ZM426.729 221.448L426.75 223.323H425.198C424.872 223.323 424.594 223.368 424.365 223.458C424.142 223.549 423.962 223.674 423.823 223.833C423.691 223.986 423.594 224.16 423.531 224.354C423.476 224.549 423.448 224.753 423.448 224.969C423.448 225.177 423.497 225.365 423.594 225.531C423.698 225.691 423.837 225.816 424.01 225.906C424.184 225.997 424.378 226.042 424.594 226.042C424.983 226.042 425.312 225.969 425.583 225.823C425.861 225.67 426.073 225.486 426.219 225.271C426.365 225.056 426.437 224.854 426.437 224.667L427.208 226.104C427.069 226.382 426.91 226.663 426.729 226.948C426.556 227.233 426.337 227.497 426.073 227.74C425.816 227.976 425.5 228.17 425.125 228.323C424.75 228.469 424.295 228.542 423.76 228.542C423.066 228.542 422.427 228.399 421.844 228.115C421.267 227.83 420.806 227.434 420.458 226.927C420.111 226.413 419.937 225.823 419.937 225.156C419.937 224.573 420.042 224.052 420.25 223.594C420.465 223.135 420.788 222.747 421.219 222.427C421.649 222.108 422.198 221.865 422.865 221.698C423.531 221.531 424.316 221.448 425.219 221.448H426.729ZM435.323 219.854V228.333H431.812V217.062H435.094L435.323 219.854ZM438.656 216.979L438.594 220.24C438.455 220.226 438.267 220.208 438.031 220.187C437.795 220.167 437.597 220.156 437.437 220.156C437.028 220.156 436.674 220.205 436.375 220.302C436.083 220.392 435.84 220.531 435.646 220.719C435.458 220.899 435.319 221.128 435.229 221.406C435.146 221.684 435.108 222.007 435.115 222.375L434.479 221.958C434.479 221.201 434.552 220.514 434.698 219.896C434.851 219.271 435.066 218.733 435.344 218.281C435.622 217.823 435.958 217.472 436.354 217.229C436.75 216.979 437.194 216.854 437.687 216.854C437.861 216.854 438.031 216.865 438.198 216.885C438.372 216.906 438.524 216.937 438.656 216.979ZM445.406 225.5V220.854C445.406 220.535 445.361 220.26 445.271 220.031C445.181 219.802 445.038 219.625 444.844 219.5C444.649 219.368 444.389 219.302 444.063 219.302C443.799 219.302 443.573 219.347 443.385 219.437C443.198 219.528 443.056 219.663 442.958 219.844C442.861 220.024 442.813 220.253 442.813 220.531H439.302C439.302 220.01 439.417 219.528 439.646 219.083C439.882 218.632 440.215 218.24 440.646 217.906C441.083 217.573 441.604 217.316 442.208 217.135C442.819 216.948 443.5 216.854 444.25 216.854C445.146 216.854 445.944 217.003 446.646 217.302C447.354 217.601 447.913 218.049 448.323 218.646C448.733 219.236 448.938 219.979 448.938 220.875V225.49C448.938 226.226 448.979 226.785 449.063 227.167C449.146 227.542 449.264 227.872 449.417 228.156V228.333H445.896C445.729 227.986 445.604 227.562 445.521 227.062C445.444 226.556 445.406 226.035 445.406 225.5ZM445.833 221.448L445.854 223.323H444.302C443.976 223.323 443.698 223.368 443.469 223.458C443.247 223.549 443.066 223.674 442.927 223.833C442.795 223.986 442.698 224.16 442.635 224.354C442.58 224.549 442.552 224.753 442.552 224.969C442.552 225.177 442.601 225.365 442.698 225.531C442.802 225.691 442.941 225.816 443.115 225.906C443.288 225.997 443.483 226.042 443.698 226.042C444.087 226.042 444.417 225.969 444.688 225.823C444.965 225.67 445.177 225.486 445.323 225.271C445.469 225.056 445.542 224.854 445.542 224.667L446.313 226.104C446.174 226.382 446.014 226.663 445.833 226.948C445.66 227.233 445.441 227.497 445.177 227.74C444.92 227.976 444.604 228.17 444.229 228.323C443.854 228.469 443.399 228.542 442.865 228.542C442.17 228.542 441.531 228.399 440.948 228.115C440.372 227.83 439.91 227.434 439.563 226.927C439.215 226.413 439.042 225.823 439.042 225.156C439.042 224.573 439.146 224.052 439.354 223.594C439.569 223.135 439.892 222.747 440.323 222.427C440.753 222.108 441.302 221.865 441.969 221.698C442.635 221.531 443.42 221.448 444.323 221.448H445.833ZM454.781 225.927L457 217.062H460.698L457.01 228.333H454.823L454.781 225.927ZM453.469 217.062L455.656 225.927L455.635 228.333H453.437L449.76 217.062H453.469ZM467.052 228.542C466.135 228.542 465.316 228.399 464.594 228.115C463.872 227.823 463.26 227.424 462.76 226.917C462.267 226.41 461.889 225.826 461.625 225.167C461.368 224.507 461.24 223.809 461.24 223.073V222.677C461.24 221.851 461.354 221.087 461.583 220.385C461.812 219.677 462.153 219.059 462.604 218.531C463.056 218.003 463.622 217.594 464.302 217.302C464.983 217.003 465.774 216.854 466.677 216.854C467.476 216.854 468.191 216.983 468.823 217.24C469.455 217.497 469.99 217.865 470.427 218.344C470.872 218.823 471.208 219.403 471.437 220.083C471.674 220.764 471.792 221.528 471.792 222.375V223.802H462.583V221.604H468.365V221.333C468.372 220.958 468.306 220.639 468.167 220.375C468.035 220.111 467.84 219.91 467.583 219.771C467.326 219.632 467.014 219.562 466.646 219.562C466.264 219.562 465.948 219.646 465.698 219.812C465.455 219.979 465.264 220.208 465.125 220.5C464.993 220.785 464.899 221.115 464.844 221.49C464.788 221.865 464.76 222.26 464.76 222.677V223.073C464.76 223.49 464.816 223.868 464.927 224.208C465.045 224.549 465.212 224.84 465.427 225.083C465.649 225.319 465.913 225.503 466.219 225.635C466.531 225.767 466.885 225.833 467.281 225.833C467.76 225.833 468.233 225.743 468.698 225.562C469.163 225.382 469.562 225.083 469.896 224.667L471.49 226.562C471.26 226.889 470.934 227.205 470.51 227.51C470.094 227.816 469.594 228.066 469.01 228.26C468.427 228.448 467.774 228.542 467.052 228.542ZM476.927 212.333V228.333H473.406V212.333H476.927Z" fill="white"/>
<rect x="571" y="196.333" width="208" height="49.3333" rx="4.66667" fill="#888888" stroke="#888888" stroke-width="4"/>
<path d="M648.5 213.167H654.469C655.635 213.167 656.649 213.34 657.51 213.687C658.372 214.035 659.035 214.549 659.5 215.229C659.972 215.91 660.208 216.75 660.208 217.75C660.208 218.618 660.073 219.344 659.802 219.927C659.531 220.51 659.153 220.993 658.667 221.375C658.188 221.75 657.628 222.059 656.99 222.302L655.792 222.979H650.781L650.76 220.156H654.469C654.934 220.156 655.319 220.073 655.625 219.906C655.931 219.74 656.16 219.503 656.313 219.198C656.472 218.885 656.552 218.514 656.552 218.083C656.552 217.646 656.472 217.271 656.313 216.958C656.153 216.646 655.917 216.406 655.604 216.24C655.299 216.073 654.92 215.99 654.469 215.99H652.156V228.333H648.5V213.167ZM656.802 228.333L653.448 221.625L657.323 221.604L660.719 228.177V228.333H656.802ZM667.708 228.542C666.792 228.542 665.972 228.399 665.25 228.115C664.528 227.823 663.917 227.424 663.417 226.917C662.924 226.41 662.545 225.826 662.281 225.167C662.024 224.507 661.896 223.809 661.896 223.073V222.677C661.896 221.851 662.01 221.087 662.24 220.385C662.469 219.677 662.809 219.059 663.26 218.531C663.712 218.003 664.278 217.594 664.958 217.302C665.639 217.003 666.431 216.854 667.333 216.854C668.132 216.854 668.847 216.983 669.479 217.24C670.111 217.497 670.646 217.865 671.083 218.344C671.528 218.823 671.865 219.403 672.094 220.083C672.33 220.764 672.448 221.528 672.448 222.375V223.802H663.24V221.604H669.021V221.333C669.028 220.958 668.962 220.639 668.823 220.375C668.691 220.111 668.497 219.91 668.24 219.771C667.983 219.632 667.67 219.562 667.302 219.562C666.92 219.562 666.604 219.646 666.354 219.812C666.111 219.979 665.92 220.208 665.781 220.5C665.649 220.785 665.556 221.115 665.5 221.49C665.444 221.865 665.417 222.26 665.417 222.677V223.073C665.417 223.49 665.472 223.868 665.583 224.208C665.701 224.549 665.868 224.84 666.083 225.083C666.306 225.319 666.569 225.503 666.875 225.635C667.187 225.767 667.542 225.833 667.937 225.833C668.417 225.833 668.889 225.743 669.354 225.562C669.819 225.382 670.219 225.083 670.552 224.667L672.146 226.562C671.917 226.889 671.59 227.205 671.167 227.51C670.75 227.816 670.25 228.066 669.667 228.26C669.083 228.448 668.431 228.542 667.708 228.542ZM679.729 225.5V220.854C679.729 220.535 679.684 220.26 679.594 220.031C679.503 219.802 679.361 219.625 679.167 219.5C678.972 219.368 678.712 219.302 678.385 219.302C678.122 219.302 677.896 219.347 677.708 219.437C677.521 219.528 677.378 219.663 677.281 219.844C677.184 220.024 677.135 220.253 677.135 220.531H673.625C673.625 220.01 673.74 219.528 673.969 219.083C674.205 218.632 674.538 218.24 674.969 217.906C675.406 217.573 675.927 217.316 676.531 217.135C677.142 216.948 677.823 216.854 678.573 216.854C679.469 216.854 680.267 217.003 680.969 217.302C681.677 217.601 682.236 218.049 682.646 218.646C683.056 219.236 683.26 219.979 683.26 220.875V225.49C683.26 226.226 683.302 226.785 683.385 227.167C683.469 227.542 683.587 227.872 683.74 228.156V228.333H680.219C680.052 227.986 679.927 227.562 679.844 227.062C679.767 226.556 679.729 226.035 679.729 225.5ZM680.156 221.448L680.177 223.323H678.625C678.299 223.323 678.021 223.368 677.792 223.458C677.569 223.549 677.389 223.674 677.25 223.833C677.118 223.986 677.021 224.16 676.958 224.354C676.903 224.549 676.875 224.753 676.875 224.969C676.875 225.177 676.924 225.365 677.021 225.531C677.125 225.691 677.264 225.816 677.438 225.906C677.611 225.997 677.806 226.042 678.021 226.042C678.41 226.042 678.74 225.969 679.01 225.823C679.288 225.67 679.5 225.486 679.646 225.271C679.792 225.056 679.865 224.854 679.865 224.667L680.635 226.104C680.497 226.382 680.337 226.663 680.156 226.948C679.983 227.233 679.764 227.497 679.5 227.74C679.243 227.976 678.927 228.17 678.552 228.323C678.177 228.469 677.722 228.542 677.188 228.542C676.493 228.542 675.854 228.399 675.271 228.115C674.694 227.83 674.233 227.434 673.885 226.927C673.538 226.413 673.365 225.823 673.365 225.156C673.365 224.573 673.469 224.052 673.677 223.594C673.892 223.135 674.215 222.747 674.646 222.427C675.076 222.108 675.625 221.865 676.292 221.698C676.958 221.531 677.743 221.448 678.646 221.448H680.156ZM689.969 225.833C690.295 225.833 690.573 225.774 690.802 225.656C691.038 225.531 691.215 225.358 691.333 225.135C691.458 224.906 691.517 224.632 691.51 224.312H694.813C694.819 225.16 694.611 225.903 694.188 226.542C693.771 227.174 693.201 227.667 692.479 228.021C691.764 228.368 690.955 228.542 690.052 228.542C689.17 228.542 688.399 228.399 687.74 228.115C687.08 227.823 686.528 227.42 686.083 226.906C685.646 226.385 685.316 225.778 685.094 225.083C684.878 224.389 684.771 223.635 684.771 222.823V222.583C684.771 221.771 684.878 221.017 685.094 220.323C685.316 219.622 685.646 219.014 686.083 218.5C686.528 217.979 687.076 217.576 687.729 217.292C688.389 217 689.156 216.854 690.031 216.854C690.969 216.854 691.795 217.031 692.51 217.385C693.233 217.74 693.799 218.253 694.208 218.927C694.618 219.601 694.819 220.417 694.813 221.375H691.51C691.517 221.035 691.465 220.729 691.354 220.458C691.243 220.187 691.069 219.972 690.833 219.812C690.604 219.646 690.309 219.562 689.948 219.562C689.587 219.562 689.295 219.642 689.073 219.802C688.851 219.962 688.681 220.184 688.563 220.469C688.451 220.747 688.375 221.066 688.333 221.427C688.299 221.788 688.281 222.174 688.281 222.583V222.823C688.281 223.24 688.299 223.632 688.333 224C688.375 224.361 688.455 224.681 688.573 224.958C688.691 225.229 688.861 225.444 689.083 225.604C689.306 225.757 689.601 225.833 689.969 225.833ZM702.25 217.062V219.5H695.458V217.062H702.25ZM696.885 214.26H700.396V224.656C700.396 224.955 700.431 225.187 700.5 225.354C700.569 225.514 700.688 225.628 700.854 225.698C701.028 225.76 701.257 225.792 701.542 225.792C701.743 225.792 701.91 225.788 702.042 225.781C702.174 225.767 702.299 225.75 702.417 225.729V228.24C702.118 228.337 701.806 228.41 701.479 228.458C701.153 228.514 700.806 228.542 700.438 228.542C699.688 228.542 699.045 228.424 698.51 228.187C697.983 227.951 697.58 227.58 697.302 227.073C697.024 226.566 696.885 225.906 696.885 225.094V214.26Z" fill="white"/>
<rect x="803" y="196.333" width="208" height="49.3333" rx="4.66667" fill="#888888" stroke="#888888" stroke-width="4"/>
<path d="M875.26 213.167H878.24L881.625 223.719L885.01 213.167H887.99L882.833 228.333H880.417L875.26 213.167ZM873.448 213.167H876.531L877.104 224.792V228.333H873.448V213.167ZM886.719 213.167H889.812V228.333H886.146V224.792L886.719 213.167ZM895.448 227.01L898.365 217.062H902.135L897.604 230.01C897.507 230.295 897.378 230.601 897.219 230.927C897.059 231.26 896.84 231.576 896.563 231.875C896.285 232.174 895.927 232.417 895.49 232.604C895.059 232.792 894.524 232.885 893.885 232.885C893.545 232.885 893.295 232.868 893.135 232.833C892.983 232.806 892.747 232.753 892.427 232.677V230.167C892.517 230.167 892.594 230.167 892.656 230.167C892.726 230.167 892.802 230.167 892.885 230.167C893.26 230.167 893.559 230.128 893.781 230.052C894.01 229.976 894.184 229.865 894.302 229.719C894.427 229.573 894.524 229.396 894.594 229.187L895.448 227.01ZM894.708 217.062L896.927 224.948L897.313 228.667H894.958L890.948 217.062H894.708ZM911.031 224.302C911.031 224.066 910.997 223.854 910.927 223.667C910.858 223.472 910.729 223.292 910.542 223.125C910.354 222.958 910.083 222.792 909.729 222.625C909.382 222.451 908.924 222.271 908.354 222.083C907.688 221.861 907.045 221.611 906.427 221.333C905.809 221.049 905.257 220.719 904.771 220.344C904.285 219.962 903.899 219.517 903.615 219.01C903.33 218.497 903.188 217.899 903.188 217.219C903.188 216.566 903.333 215.979 903.625 215.458C903.917 214.931 904.323 214.483 904.844 214.115C905.372 213.74 905.99 213.455 906.698 213.26C907.406 213.059 908.181 212.958 909.021 212.958C910.132 212.958 911.111 213.153 911.958 213.542C912.813 213.924 913.479 214.469 913.958 215.177C914.444 215.878 914.688 216.708 914.688 217.667H911.052C911.052 217.285 910.972 216.948 910.813 216.656C910.66 216.365 910.427 216.135 910.115 215.969C909.802 215.802 909.41 215.719 908.938 215.719C908.479 215.719 908.094 215.788 907.781 215.927C907.469 216.066 907.233 216.253 907.073 216.49C906.913 216.719 906.833 216.972 906.833 217.25C906.833 217.479 906.896 217.687 907.021 217.875C907.153 218.056 907.337 218.226 907.573 218.385C907.816 218.545 908.108 218.698 908.448 218.844C908.795 218.99 909.184 219.132 909.615 219.271C910.42 219.528 911.135 219.816 911.76 220.135C912.392 220.448 912.924 220.806 913.354 221.208C913.792 221.604 914.122 222.056 914.344 222.562C914.573 223.069 914.688 223.642 914.688 224.281C914.688 224.962 914.556 225.566 914.292 226.094C914.028 226.622 913.649 227.069 913.156 227.437C912.663 227.799 912.073 228.073 911.385 228.26C910.698 228.448 909.931 228.542 909.083 228.542C908.306 228.542 907.538 228.444 906.781 228.25C906.031 228.049 905.351 227.743 904.74 227.333C904.128 226.917 903.639 226.385 903.271 225.74C902.91 225.087 902.729 224.312 902.729 223.417H906.396C906.396 223.861 906.455 224.236 906.573 224.542C906.691 224.847 906.865 225.094 907.094 225.281C907.323 225.462 907.604 225.594 907.938 225.677C908.271 225.753 908.653 225.792 909.083 225.792C909.549 225.792 909.924 225.726 910.208 225.594C910.493 225.455 910.701 225.274 910.833 225.052C910.965 224.823 911.031 224.573 911.031 224.302ZM925.031 225.833L929.26 229.187L926.99 231.104L922.833 227.75L925.031 225.833ZM929.437 220.448V221.062C929.437 222.222 929.274 223.264 928.948 224.187C928.628 225.104 928.17 225.889 927.573 226.542C926.983 227.187 926.285 227.684 925.479 228.031C924.674 228.372 923.785 228.542 922.812 228.542C921.833 228.542 920.937 228.372 920.125 228.031C919.319 227.684 918.618 227.187 918.021 226.542C917.431 225.889 916.972 225.104 916.646 224.187C916.326 223.264 916.167 222.222 916.167 221.062V220.448C916.167 219.288 916.326 218.247 916.646 217.323C916.972 216.399 917.427 215.615 918.01 214.969C918.601 214.316 919.299 213.819 920.104 213.479C920.917 213.132 921.812 212.958 922.792 212.958C923.764 212.958 924.653 213.132 925.458 213.479C926.271 213.819 926.972 214.316 927.562 214.969C928.16 215.615 928.622 216.399 928.948 217.323C929.274 218.247 929.437 219.288 929.437 220.448ZM925.719 221.062V220.427C925.719 219.677 925.653 219.017 925.521 218.448C925.396 217.872 925.208 217.389 924.958 217C924.708 216.611 924.399 216.319 924.031 216.125C923.67 215.924 923.257 215.823 922.792 215.823C922.306 215.823 921.882 215.924 921.521 216.125C921.16 216.319 920.858 216.611 920.615 217C920.372 217.389 920.187 217.872 920.062 218.448C919.944 219.017 919.885 219.677 919.885 220.427V221.062C919.885 221.806 919.944 222.465 920.062 223.042C920.187 223.611 920.372 224.094 920.615 224.49C920.865 224.885 921.17 225.184 921.531 225.385C921.899 225.587 922.326 225.687 922.812 225.687C923.278 225.687 923.691 225.587 924.052 225.385C924.413 225.184 924.715 224.885 924.958 224.49C925.208 224.094 925.396 223.611 925.521 223.042C925.653 222.465 925.719 221.806 925.719 221.062ZM941.323 225.521V228.333H933.656V225.521H941.323ZM934.958 213.167V228.333H931.302V213.167H934.958Z" fill="white"/>
</svg>
