<svg width="1363" height="167" viewBox="0 0 1363 167" fill="none" xmlns="http://www.w3.org/2000/svg">
<rect width="1363" height="167" rx="15" fill="#F0F0F0"/>
<path d="M0 15C0 6.71573 6.71573 0 15 0H37V167H15C6.71573 167 0 160.284 0 152V15Z" fill="#424241"/>
<path d="M100.906 54.9219L93.3945 52.2383V49.0859L103.602 53.375V55.6367L100.906 54.9219ZM93.3945 57.1719L100.918 54.4297L103.602 53.7852V56.0352L93.3945 60.3242V57.1719ZM113.504 44.9375H116.48L120.863 57.4648L125.246 44.9375H128.223L122.059 62H119.668L113.504 44.9375ZM111.898 44.9375H114.863L115.402 57.1484V62H111.898V44.9375ZM126.863 44.9375H129.84V62H126.324V57.1484L126.863 44.9375ZM138.547 62.2344C137.562 62.2344 136.68 62.0781 135.898 61.7656C135.117 61.4453 134.453 61.0039 133.906 60.4414C133.367 59.8789 132.953 59.2266 132.664 58.4844C132.375 57.7344 132.23 56.9375 132.23 56.0938V55.625C132.23 54.6641 132.367 53.7852 132.641 52.9883C132.914 52.1914 133.305 51.5 133.812 50.9141C134.328 50.3281 134.953 49.8789 135.688 49.5664C136.422 49.2461 137.25 49.0859 138.172 49.0859C139.07 49.0859 139.867 49.2344 140.562 49.5312C141.258 49.8281 141.84 50.25 142.309 50.7969C142.785 51.3438 143.145 52 143.387 52.7656C143.629 53.5234 143.75 54.3672 143.75 55.2969V56.7031H133.672V54.4531H140.434V54.1953C140.434 53.7266 140.348 53.3086 140.176 52.9414C140.012 52.5664 139.762 52.2695 139.426 52.0508C139.09 51.832 138.66 51.7227 138.137 51.7227C137.691 51.7227 137.309 51.8203 136.988 52.0156C136.668 52.2109 136.406 52.4844 136.203 52.8359C136.008 53.1875 135.859 53.6016 135.758 54.0781C135.664 54.5469 135.617 55.0625 135.617 55.625V56.0938C135.617 56.6016 135.688 57.0703 135.828 57.5C135.977 57.9297 136.184 58.3008 136.449 58.6133C136.723 58.9258 137.051 59.168 137.434 59.3398C137.824 59.5117 138.266 59.5977 138.758 59.5977C139.367 59.5977 139.934 59.4805 140.457 59.2461C140.988 59.0039 141.445 58.6406 141.828 58.1562L143.469 59.9375C143.203 60.3203 142.84 60.6875 142.379 61.0391C141.926 61.3906 141.379 61.6797 140.738 61.9062C140.098 62.125 139.367 62.2344 138.547 62.2344ZM153.16 59.2344V44H156.559V62H153.5L153.16 59.2344ZM145.145 55.8125V55.5664C145.145 54.5977 145.254 53.7188 145.473 52.9297C145.691 52.1328 146.012 51.4492 146.434 50.8789C146.855 50.3086 147.375 49.8672 147.992 49.5547C148.609 49.2422 149.312 49.0859 150.102 49.0859C150.844 49.0859 151.492 49.2422 152.047 49.5547C152.609 49.8672 153.086 50.3125 153.477 50.8906C153.875 51.4609 154.195 52.1367 154.438 52.918C154.68 53.6914 154.855 54.5391 154.965 55.4609V56C154.855 56.8828 154.68 57.7031 154.438 58.4609C154.195 59.2188 153.875 59.8828 153.477 60.4531C153.086 61.0156 152.609 61.4531 152.047 61.7656C151.484 62.0781 150.828 62.2344 150.078 62.2344C149.289 62.2344 148.586 62.0742 147.969 61.7539C147.359 61.4336 146.844 60.9844 146.422 60.4062C146.008 59.8281 145.691 59.1484 145.473 58.3672C145.254 57.5859 145.145 56.7344 145.145 55.8125ZM148.52 55.5664V55.8125C148.52 56.3359 148.559 56.8242 148.637 57.2773C148.723 57.7305 148.859 58.1328 149.047 58.4844C149.242 58.8281 149.492 59.0977 149.797 59.293C150.109 59.4805 150.488 59.5742 150.934 59.5742C151.512 59.5742 151.988 59.4453 152.363 59.1875C152.738 58.9219 153.023 58.5586 153.219 58.0977C153.422 57.6367 153.539 57.1055 153.57 56.5039V54.9688C153.547 54.4766 153.477 54.0352 153.359 53.6445C153.25 53.2461 153.086 52.9062 152.867 52.625C152.656 52.3438 152.391 52.125 152.07 51.9688C151.758 51.8125 151.387 51.7344 150.957 51.7344C150.52 51.7344 150.145 51.8359 149.832 52.0391C149.52 52.2344 149.266 52.5039 149.07 52.8477C148.883 53.1914 148.742 53.5977 148.648 54.0664C148.562 54.5273 148.52 55.0273 148.52 55.5664ZM162.758 49.3203V62H159.371V49.3203H162.758ZM159.16 46.0156C159.16 45.5234 159.332 45.1172 159.676 44.7969C160.02 44.4766 160.48 44.3164 161.059 44.3164C161.629 44.3164 162.086 44.4766 162.43 44.7969C162.781 45.1172 162.957 45.5234 162.957 46.0156C162.957 46.5078 162.781 46.9141 162.43 47.2344C162.086 47.5547 161.629 47.7148 161.059 47.7148C160.48 47.7148 160.02 47.5547 159.676 47.2344C159.332 46.9141 159.16 46.5078 159.16 46.0156ZM170.785 59.5977C171.199 59.5977 171.566 59.5195 171.887 59.3633C172.207 59.1992 172.457 58.9727 172.637 58.6836C172.824 58.3867 172.922 58.0391 172.93 57.6406H176.105C176.098 58.5312 175.859 59.3242 175.391 60.0195C174.922 60.707 174.293 61.25 173.504 61.6484C172.715 62.0391 171.832 62.2344 170.855 62.2344C169.871 62.2344 169.012 62.0703 168.277 61.7422C167.551 61.4141 166.945 60.9609 166.461 60.3828C165.977 59.7969 165.613 59.1172 165.371 58.3438C165.129 57.5625 165.008 56.7266 165.008 55.8359V55.4961C165.008 54.5977 165.129 53.7617 165.371 52.9883C165.613 52.207 165.977 51.5273 166.461 50.9492C166.945 50.3633 167.551 49.9062 168.277 49.5781C169.004 49.25 169.855 49.0859 170.832 49.0859C171.871 49.0859 172.781 49.2852 173.562 49.6836C174.352 50.082 174.969 50.6523 175.414 51.3945C175.867 52.1289 176.098 53 176.105 54.0078H172.93C172.922 53.5859 172.832 53.2031 172.66 52.8594C172.496 52.5156 172.254 52.2422 171.934 52.0391C171.621 51.8281 171.234 51.7227 170.773 51.7227C170.281 51.7227 169.879 51.8281 169.566 52.0391C169.254 52.2422 169.012 52.5234 168.84 52.8828C168.668 53.2344 168.547 53.6367 168.477 54.0898C168.414 54.5352 168.383 55.0039 168.383 55.4961V55.8359C168.383 56.3281 168.414 56.8008 168.477 57.2539C168.539 57.707 168.656 58.1094 168.828 58.4609C169.008 58.8125 169.254 59.0898 169.566 59.293C169.879 59.4961 170.285 59.5977 170.785 59.5977ZM184.906 59.1406V53.4922C184.906 53.0859 184.84 52.7383 184.707 52.4492C184.574 52.1523 184.367 51.9219 184.086 51.7578C183.812 51.5938 183.457 51.5117 183.02 51.5117C182.645 51.5117 182.32 51.5781 182.047 51.7109C181.773 51.8359 181.562 52.0195 181.414 52.2617C181.266 52.4961 181.191 52.7734 181.191 53.0938H177.816C177.816 52.5547 177.941 52.043 178.191 51.5586C178.441 51.0742 178.805 50.6484 179.281 50.2812C179.758 49.9062 180.324 49.6133 180.98 49.4023C181.645 49.1914 182.387 49.0859 183.207 49.0859C184.191 49.0859 185.066 49.25 185.832 49.5781C186.598 49.9062 187.199 50.3984 187.637 51.0547C188.082 51.7109 188.305 52.5312 188.305 53.5156V58.9414C188.305 59.6367 188.348 60.207 188.434 60.6523C188.52 61.0898 188.645 61.4727 188.809 61.8008V62H185.398C185.234 61.6562 185.109 61.2266 185.023 60.7109C184.945 60.1875 184.906 59.6641 184.906 59.1406ZM185.352 54.2773L185.375 56.1875H183.488C183.043 56.1875 182.656 56.2383 182.328 56.3398C182 56.4414 181.73 56.5859 181.52 56.7734C181.309 56.9531 181.152 57.1641 181.051 57.4062C180.957 57.6484 180.91 57.9141 180.91 58.2031C180.91 58.4922 180.977 58.7539 181.109 58.9883C181.242 59.2148 181.434 59.3945 181.684 59.5273C181.934 59.6523 182.227 59.7148 182.562 59.7148C183.07 59.7148 183.512 59.6133 183.887 59.4102C184.262 59.207 184.551 58.957 184.754 58.6602C184.965 58.3633 185.074 58.082 185.082 57.8164L185.973 59.2461C185.848 59.5664 185.676 59.8984 185.457 60.2422C185.246 60.5859 184.977 60.9102 184.648 61.2148C184.32 61.5117 183.926 61.7578 183.465 61.9531C183.004 62.1406 182.457 62.2344 181.824 62.2344C181.02 62.2344 180.289 62.0742 179.633 61.7539C178.984 61.4258 178.469 60.9766 178.086 60.4062C177.711 59.8281 177.523 59.1719 177.523 58.4375C177.523 57.7734 177.648 57.1836 177.898 56.668C178.148 56.1523 178.516 55.7188 179 55.3672C179.492 55.0078 180.105 54.7383 180.84 54.5586C181.574 54.3711 182.426 54.2773 183.395 54.2773H185.352ZM194.469 44V62H191.082V44H194.469ZM200.82 44V62H197.434V44H200.82ZM207.371 60.5703L210.734 49.3203H214.355L209.258 63.9102C209.148 64.2305 209 64.5742 208.812 64.9414C208.633 65.3086 208.387 65.6562 208.074 65.9844C207.77 66.3203 207.383 66.5938 206.914 66.8047C206.453 67.0156 205.887 67.1211 205.215 67.1211C204.895 67.1211 204.633 67.1016 204.43 67.0625C204.227 67.0234 203.984 66.9688 203.703 66.8984V64.4258C203.789 64.4258 203.879 64.4258 203.973 64.4258C204.066 64.4336 204.156 64.4375 204.242 64.4375C204.688 64.4375 205.051 64.3867 205.332 64.2852C205.613 64.1836 205.84 64.0273 206.012 63.8164C206.184 63.6133 206.32 63.3477 206.422 63.0195L207.371 60.5703ZM205.965 49.3203L208.719 58.5078L209.199 62.082L206.902 62.3281L202.344 49.3203H205.965Z" fill="#888888"/>
<path d="M109.93 86.0078V118H102.217V86.0078H109.93ZM119.554 86.0078V91.9624H92.813V86.0078H119.554ZM132.012 118.439C130.079 118.439 128.35 118.139 126.827 117.539C125.303 116.923 124.014 116.081 122.959 115.012C121.919 113.942 121.121 112.712 120.564 111.32C120.022 109.929 119.751 108.457 119.751 106.904V106.069C119.751 104.326 119.993 102.714 120.477 101.235C120.96 99.7407 121.678 98.437 122.63 97.3237C123.582 96.2104 124.776 95.3462 126.211 94.731C127.647 94.1011 129.317 93.7861 131.221 93.7861C132.906 93.7861 134.415 94.0571 135.748 94.5991C137.081 95.1411 138.208 95.9175 139.131 96.9282C140.069 97.939 140.779 99.1621 141.263 100.598C141.761 102.033 142.01 103.645 142.01 105.432V108.442H122.586V103.806H134.781V103.234C134.795 102.443 134.656 101.77 134.363 101.213C134.085 100.656 133.675 100.231 133.133 99.9385C132.591 99.6455 131.932 99.499 131.155 99.499C130.35 99.499 129.683 99.6748 129.156 100.026C128.643 100.378 128.24 100.861 127.947 101.477C127.669 102.077 127.471 102.773 127.354 103.564C127.237 104.355 127.178 105.19 127.178 106.069V106.904C127.178 107.783 127.295 108.581 127.53 109.299C127.779 110.017 128.13 110.632 128.584 111.145C129.053 111.643 129.61 112.031 130.254 112.309C130.914 112.587 131.661 112.727 132.496 112.727C133.506 112.727 134.502 112.536 135.484 112.155C136.465 111.774 137.308 111.145 138.011 110.266L141.373 114.265C140.889 114.953 140.201 115.62 139.307 116.264C138.428 116.909 137.374 117.436 136.143 117.846C134.913 118.242 133.536 118.439 132.012 118.439ZM155.062 112.727C155.75 112.727 156.336 112.602 156.819 112.353C157.317 112.089 157.691 111.723 157.94 111.254C158.204 110.771 158.328 110.192 158.313 109.519H165.279C165.293 111.306 164.854 112.873 163.96 114.221C163.082 115.554 161.88 116.594 160.357 117.341C158.848 118.073 157.142 118.439 155.237 118.439C153.377 118.439 151.751 118.139 150.359 117.539C148.968 116.923 147.803 116.074 146.866 114.99C145.943 113.891 145.247 112.609 144.778 111.145C144.324 109.68 144.097 108.09 144.097 106.376V105.871C144.097 104.157 144.324 102.568 144.778 101.103C145.247 99.6235 145.943 98.3418 146.866 97.2578C147.803 96.1592 148.96 95.3096 150.337 94.709C151.729 94.0938 153.348 93.7861 155.193 93.7861C157.171 93.7861 158.914 94.1597 160.423 94.9067C161.946 95.6538 163.14 96.7378 164.004 98.1587C164.869 99.5796 165.293 101.301 165.279 103.322H158.313C158.328 102.604 158.218 101.96 157.984 101.389C157.75 100.817 157.383 100.363 156.885 100.026C156.402 99.6748 155.779 99.499 155.018 99.499C154.256 99.499 153.641 99.6675 153.172 100.004C152.703 100.341 152.344 100.81 152.095 101.411C151.861 101.997 151.7 102.67 151.612 103.432C151.539 104.194 151.502 105.007 151.502 105.871V106.376C151.502 107.255 151.539 108.083 151.612 108.859C151.7 109.621 151.868 110.295 152.117 110.881C152.366 111.452 152.725 111.906 153.194 112.243C153.663 112.565 154.285 112.727 155.062 112.727ZM175.694 84.25V118H168.289V84.25H175.694ZM174.815 105.3L173.079 105.344C173.079 103.674 173.284 102.136 173.694 100.729C174.104 99.3232 174.69 98.1001 175.452 97.0601C176.214 96.02 177.129 95.2144 178.199 94.6431C179.268 94.0718 180.455 93.7861 181.758 93.7861C182.93 93.7861 184 93.9546 184.966 94.2915C185.948 94.6284 186.79 95.1704 187.493 95.9175C188.211 96.6646 188.76 97.6387 189.141 98.8398C189.537 100.041 189.734 101.506 189.734 103.234V118H182.286V103.19C182.286 102.224 182.146 101.477 181.868 100.949C181.604 100.407 181.224 100.034 180.726 99.8286C180.228 99.6089 179.62 99.499 178.902 99.499C178.038 99.499 177.334 99.6455 176.792 99.9385C176.25 100.231 175.833 100.642 175.54 101.169C175.262 101.682 175.071 102.29 174.969 102.993C174.866 103.696 174.815 104.465 174.815 105.3ZM221.88 109.497C221.88 108.999 221.807 108.552 221.661 108.156C221.514 107.746 221.243 107.365 220.848 107.014C220.452 106.662 219.881 106.311 219.134 105.959C218.401 105.593 217.435 105.212 216.233 104.816C214.827 104.348 213.472 103.82 212.168 103.234C210.865 102.634 209.7 101.938 208.675 101.147C207.649 100.341 206.836 99.4038 206.236 98.3345C205.635 97.2505 205.335 95.9907 205.335 94.5552C205.335 93.1782 205.643 91.9404 206.258 90.8418C206.873 89.7285 207.73 88.7837 208.829 88.0073C209.942 87.2163 211.246 86.6157 212.74 86.2056C214.234 85.7808 215.867 85.5684 217.64 85.5684C219.983 85.5684 222.049 85.9785 223.836 86.7988C225.638 87.6045 227.044 88.7544 228.055 90.2485C229.08 91.728 229.593 93.4785 229.593 95.5H221.924C221.924 94.6943 221.756 93.9839 221.419 93.3687C221.097 92.7534 220.606 92.27 219.947 91.9185C219.288 91.5669 218.46 91.3911 217.464 91.3911C216.497 91.3911 215.684 91.5376 215.025 91.8306C214.366 92.1235 213.868 92.519 213.531 93.0171C213.194 93.5005 213.025 94.0352 213.025 94.6211C213.025 95.1045 213.157 95.5439 213.421 95.9395C213.699 96.3203 214.087 96.6792 214.585 97.0161C215.098 97.353 215.713 97.6753 216.431 97.9829C217.164 98.2905 217.984 98.5908 218.892 98.8838C220.591 99.4258 222.1 100.034 223.418 100.708C224.751 101.367 225.872 102.121 226.78 102.971C227.703 103.806 228.399 104.758 228.868 105.827C229.351 106.896 229.593 108.105 229.593 109.453C229.593 110.888 229.314 112.163 228.758 113.276C228.201 114.389 227.403 115.334 226.363 116.11C225.323 116.872 224.078 117.451 222.627 117.846C221.177 118.242 219.559 118.439 217.771 118.439C216.131 118.439 214.512 118.234 212.916 117.824C211.333 117.399 209.898 116.755 208.609 115.891C207.32 115.012 206.287 113.891 205.511 112.529C204.749 111.152 204.368 109.519 204.368 107.629H212.103C212.103 108.566 212.227 109.357 212.476 110.002C212.725 110.646 213.091 111.167 213.575 111.562C214.058 111.943 214.651 112.221 215.354 112.397C216.058 112.558 216.863 112.639 217.771 112.639C218.753 112.639 219.544 112.5 220.145 112.221C220.745 111.928 221.185 111.547 221.463 111.079C221.741 110.595 221.88 110.068 221.88 109.497ZM245.743 94.2256V99.3672H231.417V94.2256H245.743ZM234.427 88.3149H241.832V110.244C241.832 110.874 241.905 111.364 242.051 111.716C242.198 112.053 242.447 112.294 242.798 112.441C243.165 112.573 243.648 112.639 244.249 112.639C244.673 112.639 245.025 112.631 245.303 112.617C245.582 112.587 245.845 112.551 246.094 112.507V117.802C245.464 118.007 244.805 118.161 244.117 118.264C243.428 118.381 242.696 118.439 241.919 118.439C240.337 118.439 238.982 118.19 237.854 117.692C236.741 117.194 235.892 116.411 235.306 115.341C234.72 114.272 234.427 112.88 234.427 111.167V88.3149ZM261.036 112.023V102.224C261.036 101.55 260.94 100.971 260.75 100.488C260.56 100.004 260.259 99.6309 259.849 99.3672C259.439 99.0889 258.89 98.9497 258.201 98.9497C257.645 98.9497 257.168 99.0449 256.773 99.2354C256.377 99.4258 256.077 99.7114 255.872 100.092C255.667 100.473 255.564 100.957 255.564 101.542H248.16C248.16 100.444 248.401 99.4258 248.885 98.4883C249.383 97.5361 250.086 96.7085 250.994 96.0054C251.917 95.3022 253.016 94.7603 254.29 94.3794C255.579 93.9839 257.015 93.7861 258.597 93.7861C260.486 93.7861 262.171 94.1011 263.65 94.731C265.145 95.3608 266.324 96.3057 267.188 97.5654C268.052 98.8105 268.484 100.378 268.484 102.268V112.001C268.484 113.554 268.572 114.733 268.748 115.539C268.924 116.33 269.173 117.026 269.495 117.626V118H262.068C261.717 117.268 261.453 116.374 261.277 115.319C261.116 114.25 261.036 113.151 261.036 112.023ZM261.937 103.476L261.98 107.431H258.707C258.018 107.431 257.432 107.526 256.949 107.717C256.48 107.907 256.099 108.171 255.806 108.508C255.528 108.83 255.323 109.196 255.191 109.606C255.074 110.017 255.015 110.449 255.015 110.903C255.015 111.342 255.118 111.738 255.323 112.089C255.542 112.426 255.835 112.69 256.202 112.88C256.568 113.071 256.978 113.166 257.432 113.166C258.252 113.166 258.948 113.012 259.52 112.705C260.105 112.382 260.552 111.994 260.86 111.54C261.167 111.086 261.321 110.661 261.321 110.266L262.947 113.298C262.654 113.884 262.317 114.477 261.937 115.078C261.57 115.678 261.109 116.235 260.552 116.748C260.01 117.246 259.344 117.656 258.553 117.978C257.762 118.286 256.802 118.439 255.674 118.439C254.209 118.439 252.862 118.139 251.631 117.539C250.416 116.938 249.441 116.103 248.709 115.034C247.977 113.95 247.61 112.705 247.61 111.298C247.61 110.068 247.83 108.969 248.27 108.002C248.724 107.036 249.405 106.215 250.313 105.542C251.221 104.868 252.378 104.355 253.785 104.003C255.191 103.652 256.846 103.476 258.75 103.476H261.937ZM282.635 112.727C283.323 112.727 283.909 112.602 284.393 112.353C284.891 112.089 285.264 111.723 285.513 111.254C285.777 110.771 285.901 110.192 285.887 109.519H292.852C292.867 111.306 292.427 112.873 291.534 114.221C290.655 115.554 289.454 116.594 287.93 117.341C286.421 118.073 284.715 118.439 282.811 118.439C280.95 118.439 279.324 118.139 277.933 117.539C276.541 116.923 275.376 116.074 274.439 114.99C273.516 113.891 272.82 112.609 272.352 111.145C271.897 109.68 271.67 108.09 271.67 106.376V105.871C271.67 104.157 271.897 102.568 272.352 101.103C272.82 99.6235 273.516 98.3418 274.439 97.2578C275.376 96.1592 276.534 95.3096 277.911 94.709C279.302 94.0938 280.921 93.7861 282.767 93.7861C284.744 93.7861 286.487 94.1597 287.996 94.9067C289.52 95.6538 290.713 96.7378 291.578 98.1587C292.442 99.5796 292.867 101.301 292.852 103.322H285.887C285.901 102.604 285.792 101.96 285.557 101.389C285.323 100.817 284.957 100.363 284.458 100.026C283.975 99.6748 283.353 99.499 282.591 99.499C281.829 99.499 281.214 99.6675 280.745 100.004C280.276 100.341 279.917 100.81 279.668 101.411C279.434 101.997 279.273 102.67 279.185 103.432C279.112 104.194 279.075 105.007 279.075 105.871V106.376C279.075 107.255 279.112 108.083 279.185 108.859C279.273 109.621 279.441 110.295 279.69 110.881C279.939 111.452 280.298 111.906 280.767 112.243C281.236 112.565 281.858 112.727 282.635 112.727ZM303.487 84.228V118H296.082V84.228H303.487ZM318.692 94.2256L308.365 106.333L302.959 111.738L299.729 107.036L304.234 101.169L309.815 94.2256H318.692ZM310.76 118L304.41 107.167L309.881 103.278L319.241 118H310.76Z" fill="#424241"/>
<path d="M1363 15C1363 6.71573 1356.28 0 1348 0H1134V167H1348C1356.28 167 1363 160.284 1363 152V15Z" fill="#0500FF"/>
<path fill-rule="evenodd" clip-rule="evenodd" d="M1218.5 55C1218.37 55 1218.24 55.0527 1218.15 55.1464C1218.05 55.2402 1218 55.3674 1218 55.5V111.5C1218 111.633 1218.05 111.76 1218.15 111.854C1218.24 111.947 1218.37 112 1218.5 112H1278C1278.13 112 1278.26 111.947 1278.35 111.854C1278.45 111.76 1278.5 111.633 1278.5 111.5V66C1278.5 65.8674 1278.45 65.7402 1278.35 65.6464C1278.26 65.5527 1278.13 65.5 1278 65.5H1248.25C1247.36 65.5 1246.52 65.1045 1245.95 64.4206L1238.09 55H1218.5ZM1213.9 50.9038C1215.12 49.6848 1216.78 49 1218.5 49H1239.5C1240.39 49 1241.23 49.3955 1241.8 50.0794L1249.66 59.5H1278C1279.72 59.5 1281.38 60.1848 1282.6 61.4038C1283.82 62.6228 1284.5 64.2761 1284.5 66V111.5C1284.5 113.224 1283.82 114.877 1282.6 116.096C1281.38 117.315 1279.72 118 1278 118H1218.5C1216.78 118 1215.12 117.315 1213.9 116.096C1212.68 114.877 1212 113.224 1212 111.5V55.5C1212 53.7761 1212.68 52.1228 1213.9 50.9038Z" fill="white"/>
<path fill-rule="evenodd" clip-rule="evenodd" d="M1243.72 77.5251C1245.09 78.892 1245.09 81.108 1243.72 82.4749L1237.45 88.75L1243.72 95.0251C1245.09 96.392 1245.09 98.608 1243.72 99.9749C1242.36 101.342 1240.14 101.342 1238.78 99.9749L1230.03 91.2249C1228.66 89.858 1228.66 87.642 1230.03 86.2751L1238.78 77.5251C1240.14 76.1583 1242.36 76.1583 1243.72 77.5251Z" fill="white"/>
<path fill-rule="evenodd" clip-rule="evenodd" d="M1252.03 99.9749C1250.66 98.608 1250.66 96.392 1252.03 95.0251L1258.3 88.75L1252.03 82.4749C1250.66 81.108 1250.66 78.892 1252.03 77.5251C1253.39 76.1583 1255.61 76.1583 1256.97 77.5251L1265.72 86.2751C1267.09 87.642 1267.09 89.858 1265.72 91.2249L1256.97 99.9749C1255.61 101.342 1253.39 101.342 1252.03 99.9749Z" fill="white"/>
</svg>
